<svg xmlns="http://www.w3.org/2000/svg" width="100" height="100" viewBox="0 0 100 100"><defs><style>.a{fill:#d6d6d6;}.b{fill:#40c7d0;}.c{fill:#f66e5b;}.d{fill:#0088d7;}</style></defs><g transform="translate(-11065.694 -2444.566)"><circle class="a" cx="50" cy="50" r="50" transform="translate(11065.694 2444.566)"/><path d="M11131.292,2505.788a13.766,13.766,0,0,0-11.078,5.643l-21.773-11.15a13.05,13.05,0,0,0-.407-9.02l22.788-13.712a13.794,13.794,0,1,0-2.383-3.942l-22.856,13.753a13.791,13.791,0,1,0,.869,17.077l21.7,11.113a13.634,13.634,0,0,0-.678,4.054,13.816,13.816,0,1,0,13.816-13.816Z"/><circle class="b" cx="10.623" cy="10.623" r="10.623" transform="translate(11120.85 2457.843)"/><circle class="c" cx="10.623" cy="10.623" r="10.623" transform="translate(11074.608 2485.877)"/><circle class="d" cx="10.623" cy="10.623" r="10.623" transform="translate(11120.85 2509.108)"/></g></svg>