<svg xmlns="http://www.w3.org/2000/svg" width="100" height="100" viewBox="0 0 100 100"><defs><style>.a{fill:#d6d6d6;}.b{fill:#40c7d0;}.c{fill:#6eb4c7;}.d{fill:#ff5d5d;}.e{fill:#fff;}.f{fill:#fee77b;}.g{fill:#ffc857;}</style></defs><g transform="translate(-10546.74 -2256.091)"><circle class="a" cx="50" cy="50" r="50" transform="translate(10546.74 2256.091)"/><path d="M10596.689,2272.551a1.635,1.635,0,0,1-1.635-1.635v-5.032a1.635,1.635,0,0,1,3.27,0v5.032A1.635,1.635,0,0,1,10596.689,2272.551Z"/><path d="M10575.428,2281.357a1.626,1.626,0,0,1-1.154-.479l-3.56-3.558a1.635,1.635,0,0,1,2.313-2.311l3.558,3.558a1.635,1.635,0,0,1-1.156,2.79Z"/><path d="M10617.95,2281.357a1.635,1.635,0,0,1-1.156-2.79l3.559-3.559a1.635,1.635,0,0,1,2.312,2.312l-3.558,3.558A1.632,1.632,0,0,1,10617.95,2281.357Z"/><path d="M10565.328,2325.453a1.634,1.634,0,0,1-1.155-2.79l3.559-3.559a1.634,1.634,0,0,1,2.311,2.312l-3.558,3.558A1.631,1.631,0,0,1,10565.328,2325.453Z"/><path d="M10628.05,2325.453a1.633,1.633,0,0,1-1.156-.479l-3.558-3.558a1.635,1.635,0,0,1,2.313-2.312l3.558,3.559a1.634,1.634,0,0,1-1.156,2.79Z"/><path d="M10633.513,2302.618h-5.032a1.634,1.634,0,1,1,0-3.269h5.032a1.634,1.634,0,1,1,0,3.269Z"/><path d="M10564.9,2302.618h-5.032a1.634,1.634,0,1,1,0-3.269h5.032a1.634,1.634,0,0,1,0,3.269Z"/><path class="b" d="M10623.218,2302.873a26.53,26.53,0,1,0-40.442,22.665,10.255,10.255,0,0,1,4.857,8.717h18.112a10.238,10.238,0,0,1,4.845-8.709,26.672,26.672,0,0,0,12.628-22.673Z"/><path class="c" d="M10591.636,2340.581h10.106v5.717h-10.106Z"/><path d="M10620.462,2316.316a1.634,1.634,0,1,1,.907-2.993,1.638,1.638,0,0,1-.907,2.993Z"/><path class="d" d="M10587.634,2334.255h18.111v6.326h-18.111Z"/><path class="c" d="M10591.935,2299.728h9.509l-4.754-7.319Z"/><path class="e" d="M10604.126,2307.9v-2.309a5.839,5.839,0,0,0-.942-3.181l-1.74-2.68h-9.509l-1.74,2.68a5.839,5.839,0,0,0-.942,3.181v2.309"/><path class="f" d="M10589.252,2334.255h7.438V2309.1a5.429,5.429,0,0,0-7.437-1.2Z"/><path class="g" d="M10596.689,2334.255h7.437V2307.9a5.428,5.428,0,0,0-7.437,1.2Z"/><path d="M10616.743,2283.1a28.186,28.186,0,0,0-48.215,19.4,28.3,28.3,0,0,0,13.387,24.43,8.572,8.572,0,0,1,4.084,7.328v6.326a1.635,1.635,0,0,0,1.634,1.635H10590v4.082a1.635,1.635,0,0,0,1.634,1.635h10.106a1.635,1.635,0,0,0,1.634-1.635v-4.083h2.369a1.634,1.634,0,0,0,1.634-1.634v-6.326a8.551,8.551,0,0,1,4.07-7.319,28.256,28.256,0,0,0,4.253-3.228,1.634,1.634,0,0,0-2.213-2.405,24.9,24.9,0,0,1-3.761,2.853,11.855,11.855,0,0,0-3.968,4.032v-22.6a7.452,7.452,0,0,0-1.206-4.071l-6.5-10a1.634,1.634,0,0,0-2.741,0l-6.5,10a7.455,7.455,0,0,0-1.206,4.071v22.6a11.89,11.89,0,0,0-3.981-4.045,25.163,25.163,0,0,1-11.84-21.609,24.973,24.973,0,0,1,25.271-24.56,24.918,24.918,0,0,1,24.275,28.38,1.635,1.635,0,0,0,3.238.453,28.678,28.678,0,0,0,.272-3.941,28,28,0,0,0-8.109-19.774Zm-25.178,20.2,1.258-1.936h7.732l1.258,1.936a4.2,4.2,0,0,1,.677,2.148,7.086,7.086,0,0,0-1.459-.151,7.087,7.087,0,0,1-8.685,0,7.077,7.077,0,0,0-1.458.151,4.2,4.2,0,0,1,.677-2.148Zm6.759,29.323V2309.7a3.8,3.8,0,0,1,4.168-.844v23.766Zm-7.438-23.766a3.8,3.8,0,0,1,4.169.844v22.922h-4.169Zm9.222,35.809h-6.836v-2.449h6.836Zm4-5.717h-14.843v-3.058h14.843Zm-7.421-43.538,1.742,2.684h-3.485Z"/></g></svg>