<svg xmlns="http://www.w3.org/2000/svg" xmlns:xlink="http://www.w3.org/1999/xlink" width="993.174" height="1623.833" viewBox="0 0 993.174 1623.833"><defs><style>.a,.i,.j,.l{fill:none;}.a{stroke:#11a3ae;stroke-linecap:round;stroke-linejoin:round;stroke-dasharray:12;}.a,.l{stroke-width:4px;}.b{fill:url(#a);}.c{fill:url(#b);}.d{fill:url(#c);}.e,.f,.g{fill:#fff;}.e{font-size:40px;font-family:SVN-PoppinsMedium, SVN-Poppins;font-weight:500;}.f{font-size:50px;font-family:SVN-PoppinsSemiBold, SVN-Poppins;font-weight:600;}.g{font-size:70px;font-family:SVN-PoppinsExtraBold, SVN-Poppins;font-weight:800;}.h{fill:url(#f);}.i,.j,.l{stroke:#707070;stroke-miterlimit:10;}.i{stroke-width:3px;}.j{stroke-width:2px;}.k{fill:url(#g);}.m{fill:url(#h);}.n{fill:url(#i);}.o{fill:url(#l);}.p{filter:url(#n);}.q{filter:url(#j);}.r{filter:url(#d);}</style><linearGradient id="a" x1="0.755" y1="0.112" x2="0.321" y2="0.773" gradientUnits="objectBoundingBox"><stop offset="0" stop-color="#f6ecd5"/><stop offset="1" stop-color="#f8df49"/></linearGradient><linearGradient id="b" x1="0.765" y1="0.15" x2="0.21" y2="0.883" gradientUnits="objectBoundingBox"><stop offset="0" stop-color="#fab0af"/><stop offset="1" stop-color="#f66e5b"/></linearGradient><linearGradient id="c" x1="0.765" y1="0.15" x2="0.21" y2="0.883" gradientUnits="objectBoundingBox"><stop offset="0" stop-color="#9de9ef"/><stop offset="1" stop-color="#11a4af"/></linearGradient><filter id="d" x="434.636" y="0" width="428.175" height="428.175" filterUnits="userSpaceOnUse"><feOffset dx="3" dy="3" input="SourceAlpha"/><feGaussianBlur stdDeviation="10" result="e"/><feFlood flood-opacity="0.149"/><feComposite operator="in" in2="e"/><feComposite in="SourceGraphic"/></filter><linearGradient id="f" x1="0" y1="0.5" x2="1" y2="0.5" xlink:href="#a"/><linearGradient id="g" x1="0" y1="0.5" x2="1" y2="0.5" xlink:href="#c"/><linearGradient id="h" x1="0.176" y1="0.881" x2="0.824" y2="0.119" gradientUnits="objectBoundingBox"><stop offset="0" stop-color="#f8df49"/><stop offset="1" stop-color="#f6ecd5"/></linearGradient><linearGradient id="i" y1="0.5" x2="1" y2="0.5" gradientUnits="objectBoundingBox"><stop offset="0" stop-color="#0088d7"/><stop offset="1" stop-color="#5daedb"/></linearGradient><filter id="j" x="225.157" y="357.97" width="189.329" height="189.329" filterUnits="userSpaceOnUse"><feOffset dx="3" dy="3" input="SourceAlpha"/><feGaussianBlur stdDeviation="10" result="k"/><feFlood flood-opacity="0.149"/><feComposite operator="in" in2="k"/><feComposite in="SourceGraphic"/></filter><linearGradient id="l" x1="0" y1="0.5" x2="1" y2="0.5" xlink:href="#b"/><filter id="n" x="670.683" y="221.291" width="259.148" height="259.148" filterUnits="userSpaceOnUse"><feOffset dx="3" dy="3" input="SourceAlpha"/><feGaussianBlur stdDeviation="10" result="o"/><feFlood flood-opacity="0.149"/><feComposite operator="in" in2="o"/><feComposite in="SourceGraphic"/></filter></defs><g transform="translate(-244.943 -1109.08)"><path class="a" d="M11458.639,1335.752v266.3l-95.253,21.323" transform="translate(-10321.186)"/><path class="a" d="M11526.654,1335.651v69.638l-68.016,31.486" transform="translate(-10321.186)"/><path class="a" d="M10902.59,1290.187v39.523l-106.07,113.316" transform="translate(-10321.186)"/><circle class="b" cx="153.942" cy="153.942" r="153.942" transform="translate(514.137 1303.003)"/><circle class="c" cx="89.133" cy="89.133" r="89.133" transform="translate(386.2 1163.212)"/><g class="r" transform="matrix(1, 0, 0, 1, 244.94, 1109.08)"><circle class="d" cx="184.087" cy="184.087" r="184.087" transform="translate(461.64 27)"/></g><text class="e" transform="translate(473.334 1263.739)"><tspan x="-36.34" y="0">Our</tspan></text><text class="f" transform="translate(668.079 1476.49)"><tspan x="-60.675" y="0">Core</tspan></text><text class="g" transform="translate(890.667 1340.989)"><tspan x="-124.425" y="0">Values</tspan></text><circle class="h" cx="32.648" cy="32.648" r="32.648" transform="translate(1172.821 1270.355)"/><circle class="i" cx="22.178" cy="22.178" r="22.178" transform="translate(1109.472 1193.35)"/><circle class="j" cx="22.35" cy="22.35" r="22.35" transform="translate(635.682 1144.696)"/><circle class="k" cx="21.724" cy="21.724" r="21.724" transform="translate(244.943 1313.927)"/><circle class="l" cx="36.822" cy="36.822" r="36.822" transform="translate(385.061 1363.13)"/><circle class="m" cx="41.377" cy="41.377" r="41.377" transform="translate(380.506 1110.54)"/><g class="q" transform="matrix(1, 0, 0, 1, 244.94, 1109.08)"><circle class="n" cx="64.664" cy="64.664" r="64.664" transform="translate(252.16 384.97)"/></g><circle class="o" cx="8.466" cy="8.466" r="8.466" transform="translate(635.682 1274.801)"/><g class="p" transform="matrix(1, 0, 0, 1, 244.94, 1109.08)"><circle class="n" cx="99.574" cy="99.574" r="99.574" transform="translate(697.68 248.29)"/></g><circle class="n" cx="5.341" cy="5.341" r="5.341" transform="translate(327.761 1278.509)"/><circle class="c" cx="16.375" cy="16.375" r="16.375" transform="translate(1121.078 1303.003)"/><circle class="d" cx="27.702" cy="27.702" r="27.702" transform="translate(727.104 1151.917)"/><circle class="b" cx="22.86" cy="22.86" r="22.86" transform="translate(404.198 1469.33)"/><circle class="n" cx="26.241" cy="26.241" r="26.241" transform="translate(555.164 1237.706)"/><path class="a" d="M11004.524,1800.221l207.328-72.859V1504.255" transform="translate(-10321.186)"/><circle class="o" cx="19.025" cy="19.025" r="19.025" transform="translate(873.849 1558.714)"/><line class="a" y2="1120.027" transform="translate(683.001 1610.886)"/><path class="a" d="M10796.52,1341.479v317.658l208,141.085" transform="translate(-10321.186)"/><path class="a" d="M11363.386,1556.518v66.861l-151.533,37.4" transform="translate(-10321.186)"/><path class="a" d="M10748.244,1436.775V1453.2l46.274,7.542" transform="translate(-10321.186)"/><path class="a" d="M10748.244,1515.05v78.427l48.275,29.9" transform="translate(-10321.186)"/><line class="a" x1="193.608" y2="72.641" transform="translate(683.339 1588.141)"/><path class="a" d="M10882.95,1623.379v48.1l119.425,78.648" transform="translate(-10321.186)"/><line class="a" y2="13.121" transform="translate(644.148 1291.733)"/><path class="a" d="M10654.287,1289.191v40.494l140.231,36.922" transform="translate(-10321.186)"/><path class="a" d="M10587.854,1357.375v54.985l160.391,40.844" transform="translate(-10321.186)"/><line class="a" y2="113.941" transform="translate(658.032 1189.397)"/><line class="a" y2="65.297" transform="translate(1131.649 1237.706)"/></g></svg>