<svg xmlns="http://www.w3.org/2000/svg" xmlns:xlink="http://www.w3.org/1999/xlink" width="135.564" height="119.975" viewBox="0 0 135.564 119.975"><defs><style>.a{fill:url(#a);}</style><linearGradient id="a" y1="0.5" x2="1" y2="0.5" gradientUnits="objectBoundingBox"><stop offset="0" stop-color="#f66e5b"/><stop offset="1" stop-color="#fab0af"/></linearGradient></defs><path class="a" d="M27.241,1732.051c10.394-2.237,23.52-1.217,31.552-1.157a19.634,19.634,0,0,1,6.984.9c9.658,3.742,7.7,18.267,13.516,26.834,8.2,12.072,27.838,7.968,39.42,16.843,9.051,6.935,10.715,20.594,6.473,31.177s-13.118,18.588-22.344,25.286c-12.55,9.111-26.75,16.706-42.171,18.354a49.351,49.351,0,0,1-34.021-8.6c-3.855-2.767-6.244-7.141-10.827-8.568-5.543-1.727-10.727,4.2-14.876-2.949-1.382-2.382-1.12-5.449-2.16-7.949-1.2-2.893-3.194-4.524-4.464-7.4-4.608-10.424-2.6-25.983,4.406-35.784,3.106-4.345,7.065-7.684,9.478-12.727,4.44-9.281-.557-21.775,7.674-29.155C18.724,1734.61,22.725,1733.023,27.241,1732.051Z" transform="translate(8.157 -1730.61)"/></svg>