<svg xmlns="http://www.w3.org/2000/svg" xmlns:xlink="http://www.w3.org/1999/xlink" width="214.877" height="152.415" viewBox="0 0 214.877 152.415"><defs><style>.a{fill:url(#a);}</style><linearGradient id="a" y1="0.5" x2="1" y2="0.5" gradientUnits="objectBoundingBox"><stop offset="0" stop-color="#5daedb"/><stop offset="1" stop-color="#0088d7"/></linearGradient></defs><path class="a" d="M1254.77,1716.9a23.859,23.859,0,0,1,2.71,5.082c2.593,6.747,1.71,14.271,2.682,21.433,2.1,15.491,13.129,28.818,26.745,36.5s29.552,10.321,45.181,10.655c7.79.167,15.751-.237,23.026-3.025,13.524-5.182,21.558-17.572,32.273-26.35,14.908-12.214,24.55-20.652,32.47-39.23,8.972-21.047,14.6-47.678-.34-65.008-28.035-32.526-113.479-13.491-150.194-10.738-13.816,1.036-28.055,2.318-40.316,8.77-7.327,3.856-14.134,10.282-15.023,18.513-1.218,11.29,8.784,20.476,18.493,26.365C1240.506,1704.733,1249.57,1709.423,1254.77,1716.9Z" transform="translate(-1213.883 -1638.182)"/></svg>