<svg xmlns="http://www.w3.org/2000/svg" width="25" height="21.022" viewBox="0 0 25 21.022">
  <g id="Group_201" data-name="Group 201" transform="translate(-1278.73 -1858.45)">
    <path id="Path_174" data-name="Path 174" d="M1287.308,1876.97l1.2,2.5h5.434l1.2-2.5v-1.539h-7.844Z" fill="#48c8d0"/>
    <path id="Path_175" data-name="Path 175" d="M1286.482,1872.123a2.153,2.153,0,0,1,.8,1.362h7.9a2.165,2.165,0,0,1,.8-1.365,7.661,7.661,0,0,0-4.752-13.67c-.1,0-.2,0-.3.006a7.661,7.661,0,0,0-4.45,13.667Z" fill="#48c8d0"/>
    <g id="Group_195" data-name="Group 195">
      <path id="Path_176" data-name="Path 176" d="M1278.73,1865.154h2.893v1.947h-2.893Z" fill="#48c8d0"/>
    </g>
    <g id="Group_196" data-name="Group 196">
      <path id="Path_177" data-name="Path 177" d="M1279.918,1860.721l.973-1.686,2.505,1.447-.973,1.685Z" fill="#48c8d0"/>
    </g>
    <g id="Group_197" data-name="Group 197">
      <path id="Path_178" data-name="Path 178" d="M1279.918,1871.534l2.505-1.446.973,1.685-2.505,1.447Z" fill="#48c8d0"/>
    </g>
    <g id="Group_198" data-name="Group 198">
      <path id="Path_179" data-name="Path 179" d="M1300.837,1865.154h2.893v1.947h-2.893Z" fill="#48c8d0"/>
    </g>
    <g id="Group_199" data-name="Group 199">
      <path id="Path_180" data-name="Path 180" d="M1299.063,1860.482l2.505-1.447.973,1.685-2.505,1.447Z" fill="#48c8d0"/>
    </g>
    <g id="Group_200" data-name="Group 200">
      <path id="Path_181" data-name="Path 181" d="M1299.063,1871.774l.973-1.685,2.505,1.446-.973,1.686Z" fill="#48c8d0"/>
    </g>
  </g>
</svg>
