<svg xmlns="http://www.w3.org/2000/svg" width="100" height="100" viewBox="0 0 100 100">
  <g id="Group_459" data-name="Group 459" transform="translate(-10546.74 -1879.142)">
    <circle id="Ellipse_99" data-name="Ellipse 99" cx="50" cy="50" r="50" transform="translate(10546.74 1879.142)" fill="#d6d6d6"/>
    <g id="Group_458" data-name="Group 458">
      <g id="Group_453" data-name="Group 453">
        <path id="Path_509" data-name="Path 509" d="M10577.773,1932.138c10.475,0,18.967,9.973,18.967,9.973s-8.492,9.972-18.967,9.972-18.967-9.972-18.967-9.972S10567.3,1932.138,10577.773,1932.138Z" fill="#d0f0ea"/>
        <path id="Path_510" data-name="Path 510" d="M10577.773,1953.6c-11.05,0-19.757-10.077-20.122-10.505a1.519,1.519,0,0,1,0-1.968c.365-.429,9.072-10.506,20.122-10.506s19.757,10.077,20.121,10.506a1.517,1.517,0,0,1,0,1.968C10597.53,1943.523,10588.822,1953.6,10577.773,1953.6Zm-16.889-11.491c2.394,2.418,9.146,8.457,16.889,8.457,7.765,0,14.5-6.034,16.888-8.453-2.394-2.418-9.146-8.457-16.888-8.457C10570.009,1933.656,10563.273,1939.69,10560.885,1942.109Z"/>
      </g>
      <g id="Group_454" data-name="Group 454">
        <path id="Path_511" data-name="Path 511" d="M10590.38,1921.648c7.407,7.407,6.36,20.463,6.36,20.463s-13.057,1.047-20.463-6.36-6.36-20.463-6.36-20.463S10582.973,1914.241,10590.38,1921.648Z" fill="#92e0d3"/>
        <path id="Path_512" data-name="Path 512" d="M10594.96,1943.683c-4.05,0-13.6-.7-19.756-6.859-7.813-7.813-6.845-21.1-6.8-21.658a1.517,1.517,0,0,1,1.391-1.391c.564-.046,13.846-1.012,21.658,6.8s6.844,21.1,6.8,21.657a1.517,1.517,0,0,1-1.391,1.391C10596.742,1943.633,10596.05,1943.683,10594.96,1943.683Zm-23.572-26.926c-.018,3.4.487,12.446,5.962,17.921s14.515,5.96,17.919,5.962c.019-3.4-.487-12.445-5.962-17.92C10583.817,1917.23,10574.8,1916.727,10571.388,1916.757Z"/>
      </g>
      <g id="Group_455" data-name="Group 455">
        <path id="Path_513" data-name="Path 513" d="M10615.707,1932.138c-10.475,0-18.967,9.973-18.967,9.973s8.492,9.972,18.967,9.972,18.966-9.972,18.966-9.972S10626.182,1932.138,10615.707,1932.138Z" fill="#446662"/>
        <path id="Path_514" data-name="Path 514" d="M10615.707,1953.6c-11.05,0-19.757-10.077-20.122-10.505a1.517,1.517,0,0,1,0-1.968c.365-.429,9.072-10.506,20.122-10.506s19.756,10.077,20.122,10.506a1.521,1.521,0,0,1,0,1.968C10635.463,1943.523,10626.756,1953.6,10615.707,1953.6Zm-16.889-11.491c2.393,2.418,9.145,8.457,16.889,8.457,7.764,0,14.5-6.034,16.888-8.453-2.393-2.418-9.145-8.457-16.888-8.457C10607.942,1933.656,10601.206,1939.69,10598.818,1942.109Z"/>
      </g>
      <g id="Group_456" data-name="Group 456">
        <path id="Path_515" data-name="Path 515" d="M10603.1,1921.648c-7.406,7.407-6.359,20.463-6.359,20.463s13.056,1.047,20.463-6.36,6.36-20.463,6.36-20.463S10610.507,1914.241,10603.1,1921.648Z" fill="#2b8578"/>
        <path id="Path_516" data-name="Path 516" d="M10598.52,1943.683c-1.091,0-1.781-.05-1.9-.06a1.518,1.518,0,0,1-1.392-1.391c-.044-.562-1.013-13.844,6.8-21.657h0c7.812-7.813,21.093-6.847,21.656-6.8a1.518,1.518,0,0,1,1.392,1.391c.045.562,1.014,13.845-6.8,21.658C10612.121,1942.979,10602.57,1943.683,10598.52,1943.683Zm-.311-3.043c3.412.043,12.446-.486,17.921-5.962,5.491-5.49,5.986-14.52,5.964-17.919h-.167c-3.522,0-12.366.575-17.755,5.961C10598.682,1928.211,10598.187,1937.241,10598.209,1940.64Z"/>
      </g>
      <g id="Group_457" data-name="Group 457">
        <path id="Path_517" data-name="Path 517" d="M10606.712,1923.144c0,10.475-9.972,18.967-9.972,18.967s-9.973-8.492-9.973-18.967,9.973-18.966,9.973-18.966S10606.712,1912.669,10606.712,1923.144Z" fill="#6db2a6"/>
        <path id="Path_518" data-name="Path 518" d="M10596.74,1943.628a1.511,1.511,0,0,1-.984-.362c-.429-.365-10.506-9.073-10.506-20.122s10.077-19.757,10.506-20.121a1.515,1.515,0,0,1,1.968,0c.429.364,10.507,9.072,10.507,20.121s-10.078,19.757-10.507,20.122A1.51,1.51,0,0,1,10596.74,1943.628Zm0-37.37c-2.419,2.393-8.455,9.144-8.455,16.886,0,7.765,6.034,14.5,8.453,16.888,2.419-2.393,8.457-9.144,8.457-16.888S10599.159,1908.651,10596.74,1906.258Z"/>
      </g>
    </g>
  </g>
</svg>
