<svg xmlns="http://www.w3.org/2000/svg" width="100" height="100" viewBox="0 0 100 100">
  <g id="Group_491" data-name="Group 491" transform="translate(-10546.74 -2633.041)">
    <circle id="Ellipse_101" data-name="Ellipse 101" cx="50" cy="50" r="50" transform="translate(10546.74 2633.041)" fill="#d6d6d6"/>
    <g id="Group_490" data-name="Group 490">
      <path id="Path_535" data-name="Path 535" d="M10581.36,2698.487a7.969,7.969,0,0,1-.861,3.643,8.145,8.145,0,1,1,.861-3.643Z" fill="#f6db40"/>
      <path id="Path_536" data-name="Path 536" d="M10605,2704.83a8.033,8.033,0,0,1,1.966,5.295,8.147,8.147,0,1,1-15.84-2.677,8.137,8.137,0,0,1,13.874-2.618Z" fill="#40c7d0"/>
      <path id="Path_537" data-name="Path 537" d="M10624.424,2676.373a8.147,8.147,0,1,1,0,16.294,8.18,8.18,0,0,1-8.147-8.147,6.782,6.782,0,0,1,.082-1.094,8.128,8.128,0,0,1,8.065-7.053Z" fill="#11a3ae"/>
      <path id="Path_538" data-name="Path 538" d="M10606.884,2682.122a8.143,8.143,0,0,1-16.213-1.094,7.967,7.967,0,0,1,.861-3.643,8.146,8.146,0,0,1,15.433,3.643A6.767,6.767,0,0,1,10606.884,2682.122Z" fill="#f66e5b"/>
      <path id="Path_539" data-name="Path 539" d="M10598.818,2650.768a8.147,8.147,0,1,1,0,16.294,8.147,8.147,0,0,1-8.147-8.147A8.141,8.141,0,0,1,10598.818,2650.768Z" fill="#f6db40"/>
      <path id="Path_540" data-name="Path 540" d="M10580.871,2665.444a8.119,8.119,0,0,1,.489,2.782,7.966,7.966,0,0,1-.861,3.643,8.109,8.109,0,0,1-3.119,3.352,8.028,8.028,0,0,1-4.167,1.152,8.147,8.147,0,1,1,7.658-10.929Z" fill="#0088d7"/>
      <path id="Path_541" data-name="Path 541" d="M10577.245,2690.107a9.306,9.306,0,1,0,3.705,13.551l8.8,4.4a9.308,9.308,0,1,0,16.783-3.147l12.358-12.923a9.311,9.311,0,1,0-.165-14.817l-12.558-12.559a9.316,9.316,0,1,0-16.42-3.641l-8.255,3.007a9.316,9.316,0,1,0-4.554,12.772l4.285,7.211Zm-4.032,15.363a6.984,6.984,0,1,1,6.983-6.983A6.99,6.99,0,0,1,10573.213,2705.47Zm8.774-3.9a9.245,9.245,0,0,0-2.786-10.205l3.347-5.17,10.092,16.982a9.383,9.383,0,0,0-2.088,2.681Zm16.831-33.346a9.251,9.251,0,0,0,5.7-1.965l12.56,12.56a9.271,9.271,0,0,0-1.642,3.3l-7.311-1.006c0-.03,0-.06,0-.091a9.307,9.307,0,0,0-17.048-5.171l-1.389-.693,5.1-7.869a9.233,9.233,0,0,0,4.03.931Zm1.164,32.669v-10.637a9.324,9.324,0,0,0,7.823-6.834l7.312,1c0,.031,0,.061,0,.091a9.261,9.261,0,0,0,2.089,5.866l-12.221,12.778A9.268,9.268,0,0,0,10599.982,2700.9Zm-1.164-26.85a6.984,6.984,0,1,1-6.983,6.983A6.99,6.99,0,0,1,10598.818,2674.045Zm-8.774,3.9a9.274,9.274,0,0,0,7.61,12.316V2700.9a9.219,9.219,0,0,0-3.094.959l-10.6-17.839,4.459-6.885Zm8.774,39.166a6.983,6.983,0,1,1,6.983-6.984A6.99,6.99,0,0,1,10598.818,2717.109Zm25.605-39.572a6.983,6.983,0,1,1-6.983,6.983A6.99,6.99,0,0,1,10624.424,2677.537Zm-25.605-25.606a6.984,6.984,0,1,1-6.983,6.984A6.99,6.99,0,0,1,10598.818,2651.931Zm-8.276,11.228a9.376,9.376,0,0,0,2.289,2.875l-5.232,8.082-5.609-2.8a9.116,9.116,0,0,0,.3-5.144Zm-24.312,5.067a6.983,6.983,0,1,1,6.982,6.983A6.99,6.99,0,0,1,10566.23,2668.226Zm12.7,7.331a9.358,9.358,0,0,0,2.018-2.16l5.374,2.686-3.691,5.7Z" fill="#1a1a1a"/>
    </g>
  </g>
</svg>
