<svg xmlns="http://www.w3.org/2000/svg" width="25" height="25" viewBox="0 0 25 25">
  <g id="Group_202" data-name="Group 202" transform="translate(-1278.73 -1901.063)">
    <path id="Path_182" data-name="Path 182" d="M1289.033,1926.063v-2.246a2.93,2.93,0,1,1,0-5.859v-2.2h-4.094l.348-.979a1.427,1.427,0,0,0,.084-.486,1.465,1.465,0,0,0-2.93,0,1.427,1.427,0,0,0,.084.486l.348.979h-4.143A11.146,11.146,0,0,0,1289.033,1926.063Z" fill="#48c8d0"/>
    <path id="Path_183" data-name="Path 183" d="M1283.906,1911.366a2.933,2.933,0,0,1,2.929,2.93h2.2V1910.2l.978.348a1.464,1.464,0,1,0,0-2.762l-.978.348v-4.057a11.065,11.065,0,0,0-10.3,10.217h2.246a2.933,2.933,0,0,1,2.93-2.93Z" fill="#48c8d0"/>
    <path id="Path_184" data-name="Path 184" d="M1300.714,1915.761h-2.16a2.93,2.93,0,0,1-5.859,0h-2.2v4.094l-.979-.349a1.465,1.465,0,1,0,0,2.763l.979-.349v4.143A11.064,11.064,0,0,0,1300.714,1915.761Z" fill="#48c8d0"/>
    <path id="Path_185" data-name="Path 185" d="M1300.751,1906.971v-2.929h-2.929a2.93,2.93,0,1,0-5.86,0H1290.5v2.2a2.93,2.93,0,0,1,0,5.859v2.2h4.094l-.349.978a1.427,1.427,0,0,0-.083.487,1.464,1.464,0,0,0,2.929,0,1.451,1.451,0,0,0-.083-.487l-.349-.978h4.094v-1.465a2.93,2.93,0,1,0,0-5.86Z" fill="#48c8d0"/>
  </g>
</svg>
