<svg xmlns="http://www.w3.org/2000/svg" width="25" height="23.437" viewBox="0 0 25 23.437"><defs><style>.a{fill:#40c7d0;}</style></defs><g transform="translate(-60 -1337.574)"><path class="a" d="M84.268,1340.5h-.733v15.381a2.241,2.241,0,0,1-2.246,2.2H74.572a2.2,2.2,0,0,1-4.144,0H63.711a2.241,2.241,0,0,1-2.246-2.2V1340.5h-.733a.733.733,0,0,0-.732.733v17.578a.732.732,0,0,0,.732.732h8.231a2.2,2.2,0,0,0,2.072,1.465h2.93a2.2,2.2,0,0,0,2.072-1.465h8.231a.732.732,0,0,0,.732-.732v-17.578A.733.733,0,0,0,84.268,1340.5Z"/><path class="a" d="M71.768,1356.08v-16.8a7.735,7.735,0,0,0-5.127-1.706.732.732,0,0,0-.733.732v14.648a.733.733,0,0,0,.733.733C70.029,1353.687,71.441,1355.561,71.768,1356.08Z"/><path class="a" d="M81.289,1356.617a.732.732,0,0,0,.732-.733v-16.113a.732.732,0,0,0-.732-.733H75.43a3.627,3.627,0,0,0-2.2.752v17.559a.733.733,0,0,1,.733-.732Z"/><path class="a" d="M63.711,1339.038a.732.732,0,0,0-.732.733v16.113a.732.732,0,0,0,.732.733h6.633a4.561,4.561,0,0,0-3.7-1.465,2.2,2.2,0,0,1-2.2-2.2v-13.916Z"/></g></svg>