<svg xmlns="http://www.w3.org/2000/svg" width="616.256" height="616.255" viewBox="0 0 616.256 616.255">
  <g id="Group_555" data-name="Group 555" transform="translate(-4415.687 -1608.907)">
    <g id="Group_554" data-name="Group 554">
      <path id="Ellipse_133" data-name="Ellipse 133" d="M95.505-.5a96.712,96.712,0,0,1,19.348,1.95A95.482,95.482,0,0,1,149.183,15.9a96.285,96.285,0,0,1,34.783,42.239,95.526,95.526,0,0,1,5.594,18.022,96.937,96.937,0,0,1,0,38.7,95.482,95.482,0,0,1-14.446,34.33,96.284,96.284,0,0,1-42.239,34.783,95.526,95.526,0,0,1-18.022,5.594,96.937,96.937,0,0,1-38.7,0,95.482,95.482,0,0,1-34.33-14.446A96.284,96.284,0,0,1,7.045,132.875,95.526,95.526,0,0,1,1.45,114.853a96.937,96.937,0,0,1,0-38.7A95.482,95.482,0,0,1,15.9,41.827,96.284,96.284,0,0,1,58.136,7.045,95.526,95.526,0,0,1,76.157,1.45,96.712,96.712,0,0,1,95.505-.5Zm0,191.011a95.71,95.71,0,0,0,19.147-1.93,94.482,94.482,0,0,0,33.971-14.295,95.284,95.284,0,0,0,34.421-41.8,94.524,94.524,0,0,0,5.536-17.833,95.937,95.937,0,0,0,0-38.295,94.482,94.482,0,0,0-14.295-33.971,95.284,95.284,0,0,0-41.8-34.422A94.524,94.524,0,0,0,114.653,2.43a95.937,95.937,0,0,0-38.295,0A94.482,94.482,0,0,0,42.387,16.725a95.284,95.284,0,0,0-34.422,41.8A94.524,94.524,0,0,0,2.43,76.358a95.937,95.937,0,0,0,0,38.295,94.482,94.482,0,0,0,14.295,33.971,95.284,95.284,0,0,0,41.8,34.421,94.524,94.524,0,0,0,17.833,5.536A95.71,95.71,0,0,0,95.505,190.511Z" transform="translate(4628.309 1821.529)" fill="#ececec"/>
      <path id="Ellipse_134" data-name="Ellipse 134" d="M178.629-.5a180.448,180.448,0,0,1,36.1,3.639,178.149,178.149,0,0,1,64.053,26.953,179.65,179.65,0,0,1,64.9,78.811,178.229,178.229,0,0,1,10.438,33.625,180.869,180.869,0,0,1,0,72.2,178.149,178.149,0,0,1-26.953,64.053,179.651,179.651,0,0,1-78.811,64.9,178.231,178.231,0,0,1-33.625,10.438,180.869,180.869,0,0,1-72.2,0,178.15,178.15,0,0,1-64.053-26.953,179.651,179.651,0,0,1-64.9-78.811A178.231,178.231,0,0,1,3.139,214.729a180.869,180.869,0,0,1,0-72.2A178.15,178.15,0,0,1,30.093,78.476a179.65,179.65,0,0,1,78.811-64.9A178.229,178.229,0,0,1,142.529,3.139,180.448,180.448,0,0,1,178.629-.5Zm0,357.258a179.447,179.447,0,0,0,35.9-3.619,177.148,177.148,0,0,0,63.694-26.8,178.652,178.652,0,0,0,64.538-78.372,177.231,177.231,0,0,0,10.379-33.436,179.871,179.871,0,0,0,0-71.8,177.149,177.149,0,0,0-26.8-63.694A178.651,178.651,0,0,0,247.965,14.5,177.231,177.231,0,0,0,214.529,4.119a179.871,179.871,0,0,0-71.8,0,177.151,177.151,0,0,0-63.694,26.8A178.65,178.65,0,0,0,14.5,109.293,177.23,177.23,0,0,0,4.119,142.729a179.871,179.871,0,0,0,0,71.8,177.15,177.15,0,0,0,26.8,63.694,178.651,178.651,0,0,0,78.372,64.538,177.23,177.23,0,0,0,33.436,10.379A179.448,179.448,0,0,0,178.629,356.758Z" transform="translate(4545.186 1738.406)" fill="#ececec"/>
      <path id="Ellipse_135" data-name="Ellipse 135" d="M307.628-.5a310.4,310.4,0,0,1,62.1,6.26,306.441,306.441,0,0,1,110.18,46.364A309.027,309.027,0,0,1,591.541,187.69,306.582,306.582,0,0,1,609.5,245.53a311.126,311.126,0,0,1,0,124.2,306.441,306.441,0,0,1-46.364,110.18A309.027,309.027,0,0,1,427.565,591.541,306.582,306.582,0,0,1,369.726,609.5a311.126,311.126,0,0,1-124.2,0,306.441,306.441,0,0,1-110.18-46.364A309.027,309.027,0,0,1,23.714,427.565,306.582,306.582,0,0,1,5.76,369.726a311.126,311.126,0,0,1,0-124.2A306.441,306.441,0,0,1,52.124,135.35,309.027,309.027,0,0,1,187.69,23.714,306.582,306.582,0,0,1,245.53,5.76,310.4,310.4,0,0,1,307.628-.5Zm0,615.256a309.4,309.4,0,0,0,61.9-6.24A305.444,305.444,0,0,0,479.345,562.3,308.025,308.025,0,0,0,590.62,427.176a305.566,305.566,0,0,0,17.9-57.65,310.124,310.124,0,0,0,0-123.795A305.444,305.444,0,0,0,562.3,135.91,308.025,308.025,0,0,0,427.176,24.635a305.566,305.566,0,0,0-57.65-17.9,310.124,310.124,0,0,0-123.795,0A305.444,305.444,0,0,0,135.91,52.952,308.025,308.025,0,0,0,24.635,188.08a305.566,305.566,0,0,0-17.9,57.65,310.124,310.124,0,0,0,0,123.795,305.444,305.444,0,0,0,46.213,109.82A308.025,308.025,0,0,0,188.08,590.62a305.566,305.566,0,0,0,57.65,17.9A309.4,309.4,0,0,0,307.628,614.756Z" transform="translate(4416.187 1609.407)" fill="#ececec"/>
    </g>
    <circle id="Ellipse_136" data-name="Ellipse 136" cx="5.849" cy="5.849" r="5.849" transform="translate(4540.756 1893.391)" fill="#b8fcff"/>
    <circle id="Ellipse_137" data-name="Ellipse 137" cx="5.722" cy="5.722" r="5.722" transform="translate(4771.43 1990.504)" fill="#b8e9ff"/>
    <circle id="Ellipse_138" data-name="Ellipse 138" cx="4.933" cy="4.933" r="4.933" transform="translate(4586.599 2031.475)" fill="#ffc3be"/>
    <circle id="Ellipse_139" data-name="Ellipse 139" cx="5.068" cy="5.068" r="5.068" transform="translate(4416.187 1964.763)" fill="#fff1b2"/>
  </g>
</svg>
