<svg xmlns="http://www.w3.org/2000/svg" width="25" height="14.583" viewBox="0 0 25 14.583"><defs><style>.a{fill:#40c7d0;}</style></defs><g transform="translate(-59.573 -1235.535)"><path class="a" d="M65.615,1236.681c-.833-.834-4.375-1.042-5.521-1.146a.382.382,0,0,0-.312.1.783.783,0,0,0-.209.417v9.375a.492.492,0,0,0,.521.52h3.125a.572.572,0,0,0,.521-.312c0-.313,1.875-5.833,2.083-8.542A.415.415,0,0,0,65.615,1236.681Z"/><path class="a" d="M76.761,1239.181c-1.042-.313-1.979-.73-2.813-1.042-1.875-.833-2.708-.417-4.375,1.25a3.41,3.41,0,0,0-1.146,2.187c0,.1,0,.1.209.209.521.208,1.25.312,1.979-.834a.541.541,0,0,1,.417-.208,1.938,1.938,0,0,0,.729-.208,5.031,5.031,0,0,1,.729-.313H72.7c.1,0,.313.1.417.1.521.521,1.458,1.25,2.4,2.084a23.949,23.949,0,0,1,3.646,3.333h.1C78.532,1243.66,77.282,1240.118,76.761,1239.181Z"/><path class="a" d="M84.052,1236.576a18.261,18.261,0,0,0-6.458,1.042l-.312.313a.625.625,0,0,0,.1.416,58.761,58.761,0,0,1,3.021,8.229.69.69,0,0,0,.52.417h3.125a.492.492,0,0,0,.521-.521V1237.1A.492.492,0,0,0,84.052,1236.576Z"/><path class="a" d="M78.427,1246.785c-.416-.938-2.187-2.292-3.75-3.542-.833-.729-1.666-1.354-2.291-1.875-.1.1-.313.1-.313.208a1.946,1.946,0,0,1-.833.209,2.573,2.573,0,0,1-3.021,1.041,1.229,1.229,0,0,1-.937-.937c-.209-1.042.729-2.5,1.458-3.229H66.657a53.185,53.185,0,0,1-1.667,6.25,11.907,11.907,0,0,0,1.146,1.146c1.979,1.666,4.271,3.333,4.687,3.645a2.957,2.957,0,0,0,1.25.417h.313l-1.667-1.667a.515.515,0,0,1,.729-.729l2.084,2.084c.208.208.416.1.625.1.312-.1.416-.313.521-.625l-2.4-2.4a.515.515,0,0,1,.729-.729l2.6,2.6a1.115,1.115,0,0,0,.833,0c.1-.1.313-.208.417-.417l-2.917-2.916a.516.516,0,0,1,.729-.73l3.021,3.021a.689.689,0,0,0,.625-.1A.706.706,0,0,0,78.427,1246.785Z"/></g></svg>