<svg xmlns="http://www.w3.org/2000/svg" width="100" height="100" viewBox="0 0 100 100">
  <g id="Group_493" data-name="Group 493" transform="translate(-11065.694 -2067.616)">
    <circle id="Ellipse_102" data-name="Ellipse 102" cx="50" cy="50" r="50" transform="translate(11065.694 2067.616)" fill="#d6d6d6"/>
    <g id="Group_492" data-name="Group 492">
      <path id="Path_542" data-name="Path 542" d="M11144.626,2092.3a3.518,3.518,0,0,1-.65-.89c-.159-.4-.239-.84-.4-1.25a15.759,15.759,0,0,1-1.05-2.21c-.07-.36.159-.7.149-1.07a2.331,2.331,0,0,0-.4-1.07,4.924,4.924,0,0,0-2.41-2.49c-.75-.24-1.57-.11-2.3-.4-.761-.31-1.44-.79-2.21-1.1-.57-.23-1.16-.39-1.75-.58-.62-.22-.7-.67-1.12-1.12a2.028,2.028,0,0,0-1.53-.42,20.938,20.938,0,0,0-2.73.21,2.727,2.727,0,0,0-1.05.31c-.49.3-.77.8-1.31,1.03-.45.19-.94.29-1.4.47-.71.27-1.35.68-2.05.97-.64.28-1.32-.03-1.97.2-.471.16-.74.63-1.1.98-.42.43-.979.71-1.42,1.13a2.907,2.907,0,0,0-.84,2.24,1.475,1.475,0,0,1-.24,1.13c-.239.44-.46.88-.66,1.34-.25.57-.39,1.18-.63,1.75-.18.46-.6.38-.84.78a.714.714,0,0,0-.08.33,9.4,9.4,0,0,0,.1,1.3,15.7,15.7,0,0,1,0,3.06,3.441,3.441,0,0,0-.03.96,1.776,1.776,0,0,0,.4.8,1.707,1.707,0,0,1,.39.77,14.365,14.365,0,0,0,1.29,3.18c.2.36.76.95.49,1.39a1.354,1.354,0,0,0-.271.46.841.841,0,0,0,.24.59,7.648,7.648,0,0,0,2.02,1.99,6.232,6.232,0,0,1,1.24.76,4.636,4.636,0,0,0,.48.51.605.605,0,0,0,.649.12c.681-.36,1.1.13,1.771.45a14.8,14.8,0,0,0,2.13.82c.6.18,1.31.11,1.46.87a1.6,1.6,0,0,0,.14.57.781.781,0,0,0,.561.28,12.175,12.175,0,0,0,2.689-.14,8.563,8.563,0,0,1,1.96.05.659.659,0,0,0,.311-.02c.279-.15.109-.59.189-.84a1.162,1.162,0,0,1,.62-.61c.86-.4,1.84-.57,2.72-.99.57-.27,1.15-.92,1.78-.54a2.255,2.255,0,0,0,.74.41,1.119,1.119,0,0,0,.67-.12c1.07-.53,1.4-1.9,2.24-2.76.25-.26.56-.47.79-.76a1.109,1.109,0,0,0,.27-1.02c-.22-.65-.37-.65-.01-1.27a14.162,14.162,0,0,0,.83-1.71c.24-.58.4-1.17.59-1.76.21-.61.85-.87,1.08-1.5a3.86,3.86,0,0,0,.15-1.22c.029-.33.08-.66.13-.99a6.66,6.66,0,0,0,.069-.76A4.075,4.075,0,0,0,11144.626,2092.3Zm-14.84,9.41a6.17,6.17,0,1,1,6.16-6.17A6.167,6.167,0,0,1,11129.786,2101.71Z" fill="#f66e5b"/>
      <path id="Path_543" data-name="Path 543" d="M11097.7,2117.13a10.5,10.5,0,1,0,10.5,10.5A10.5,10.5,0,0,0,11097.7,2117.13Zm3.71,10.5a3.705,3.705,0,1,1-3.71-3.71A3.707,3.707,0,0,1,11101.406,2127.63Z" fill="#f8df49"/>
      <path id="Path_544" data-name="Path 544" d="M11123.612,2132.561v-9.871h-4.271a22.023,22.023,0,0,0-2.854-6.872l3.024-3.026-6.979-6.98-3.025,3.025a22.093,22.093,0,0,0-6.872-2.854v-4.27h-9.872v4.27a22.1,22.1,0,0,0-6.871,2.854l-3.025-3.025-6.98,6.98,3.025,3.026a22.1,22.1,0,0,0-2.854,6.872h-4.27v9.871h4.27a22.108,22.108,0,0,0,2.854,6.872l-3.025,3.025,6.98,6.98,3.025-3.025a22.051,22.051,0,0,0,6.871,2.854v4.271h9.872v-4.271a22.047,22.047,0,0,0,6.872-2.854l3.025,3.025,6.979-6.98-3.024-3.025a22.036,22.036,0,0,0,2.854-6.872Zm-25.913,11.1a16.041,16.041,0,1,1,16.041-16.041A16.041,16.041,0,0,1,11097.7,2143.666Z" fill="#40c7d0"/>
      <path id="Path_545" data-name="Path 545" d="M11145.822,2144.9v-4.936h-1.558a9.85,9.85,0,0,0-1.051-2.539l1.1-1.1-3.489-3.489-1.1,1.1a9.852,9.852,0,0,0-2.539-1.051v-1.557h-4.936v1.557a9.852,9.852,0,0,0-2.539,1.051l-1.1-1.1-3.49,3.489,1.1,1.1a9.85,9.85,0,0,0-1.051,2.539h-1.557v4.936h1.557a9.856,9.856,0,0,0,1.051,2.54l-1.1,1.1,3.49,3.49,1.1-1.1a9.784,9.784,0,0,0,2.539,1.051v1.558h4.936v-1.558a9.784,9.784,0,0,0,2.539-1.051l1.1,1.1,3.489-3.49-1.1-1.1a9.856,9.856,0,0,0,1.051-2.54Zm-11.105,2.468a4.935,4.935,0,1,1,4.937-4.936A4.936,4.936,0,0,1,11134.717,2147.368Z" fill="#0088d7"/>
      <path id="Path_546" data-name="Path 546" d="M11071.787,2133.795h3.308a23.215,23.215,0,0,0,2.263,5.448l-2.346,2.344a1.236,1.236,0,0,0,0,1.745h0l6.981,6.98a1.233,1.233,0,0,0,1.744,0l2.345-2.344a23.27,23.27,0,0,0,5.448,2.26v3.309a1.233,1.233,0,0,0,1.232,1.234h9.872a1.235,1.235,0,0,0,1.234-1.234v-3.309a23.35,23.35,0,0,0,5.448-2.261l2.344,2.344a1.234,1.234,0,0,0,1.745,0l6.979-6.98a1.233,1.233,0,0,0,0-1.745h0l-2.344-2.345a23.178,23.178,0,0,0,2.261-5.446h3.31a1.233,1.233,0,0,0,1.232-1.234v-9.871a1.233,1.233,0,0,0-1.232-1.234h-3.31a23.175,23.175,0,0,0-2.261-5.448l2.344-2.345a1.233,1.233,0,0,0,0-1.745h0l-6.979-6.98a1.234,1.234,0,0,0-1.745,0l-2.344,2.345a23.308,23.308,0,0,0-5.448-2.261v-3.308a1.234,1.234,0,0,0-1.234-1.234h-9.872a1.233,1.233,0,0,0-1.232,1.234v3.308a23.259,23.259,0,0,0-5.448,2.262l-2.345-2.345a1.235,1.235,0,0,0-1.744,0l-6.98,6.982a1.235,1.235,0,0,0,0,1.745h0l2.346,2.344a23.228,23.228,0,0,0-2.264,5.446h-3.308a1.234,1.234,0,0,0-1.234,1.234v9.871A1.235,1.235,0,0,0,11071.787,2133.795Zm1.234-9.872h3.035a1.234,1.234,0,0,0,1.205-.96,20.756,20.756,0,0,1,2.693-6.488,1.235,1.235,0,0,0-.172-1.53l-2.152-2.153,5.235-5.235,2.152,2.152a1.235,1.235,0,0,0,1.529.172,20.764,20.764,0,0,1,6.488-2.692,1.233,1.233,0,0,0,.961-1.2v-3.038h7.4v3.038a1.234,1.234,0,0,0,.961,1.2,20.749,20.749,0,0,1,6.487,2.692,1.235,1.235,0,0,0,1.529-.172l2.153-2.152,5.235,5.235-2.151,2.153a1.232,1.232,0,0,0-.173,1.53,20.756,20.756,0,0,1,2.693,6.488,1.234,1.234,0,0,0,1.2.96h3.037v7.4h-3.037a1.234,1.234,0,0,0-1.2.96,20.756,20.756,0,0,1-2.693,6.488,1.232,1.232,0,0,0,.173,1.53l2.151,2.153-5.235,5.236-2.153-2.152a1.235,1.235,0,0,0-1.529-.173,20.726,20.726,0,0,1-6.487,2.692,1.235,1.235,0,0,0-.961,1.205v3.038h-7.4v-3.038a1.234,1.234,0,0,0-.961-1.205,20.74,20.74,0,0,1-6.488-2.692,1.235,1.235,0,0,0-1.529.173l-2.152,2.152-5.235-5.236,2.152-2.153a1.235,1.235,0,0,0,.172-1.53,20.756,20.756,0,0,1-2.693-6.488,1.234,1.234,0,0,0-1.205-.96h-3.035Z"/>
      <path id="Path_547" data-name="Path 547" d="M11097.7,2144.9a17.275,17.275,0,1,0-17.275-17.275A17.274,17.274,0,0,0,11097.7,2144.9Zm0-32.082a14.807,14.807,0,1,1-14.808,14.807A14.806,14.806,0,0,1,11097.7,2112.818Z"/>
      <path id="Path_548" data-name="Path 548" d="M11145.822,2090.608h-2.089a14.792,14.792,0,0,0-.6-1.443l1.481-1.481a1.234,1.234,0,0,0,0-1.744l-5.24-5.23a1.236,1.236,0,0,0-1.745,0l-1.48,1.481a15.008,15.008,0,0,0-1.437-.6V2079.5a1.234,1.234,0,0,0-1.233-1.234h-7.4a1.235,1.235,0,0,0-1.234,1.234v2.089a14.773,14.773,0,0,0-1.44.595l-1.48-1.481a1.236,1.236,0,0,0-1.745,0l-5.23,5.241a1.233,1.233,0,0,0,0,1.745l1.48,1.48a14.963,14.963,0,0,0-.6,1.437h-2.089a1.234,1.234,0,0,0-1.234,1.233v7.4a1.235,1.235,0,0,0,1.234,1.234h2.089a15.014,15.014,0,0,0,.595,1.442l-1.48,1.481a1.235,1.235,0,0,0,0,1.745l5.235,5.235a1.234,1.234,0,0,0,1.745,0l1.48-1.48a14.88,14.88,0,0,0,1.44.593v2.089a1.235,1.235,0,0,0,1.234,1.234h7.4a1.234,1.234,0,0,0,1.233-1.234V2109.5a14.418,14.418,0,0,0,1.441-.6l1.48,1.481a1.234,1.234,0,0,0,1.745,0l5.235-5.235a1.235,1.235,0,0,0,0-1.745l-1.481-1.481a14.858,14.858,0,0,0,.6-1.441h2.089a1.234,1.234,0,0,0,1.233-1.234v-7.4A1.233,1.233,0,0,0,11145.822,2090.608Zm-1.234,7.4h-1.758a1.235,1.235,0,0,0-1.187.9,12.329,12.329,0,0,1-1.091,2.645,1.234,1.234,0,0,0,.205,1.48l1.234,1.24-3.485,3.485-1.233-1.234a1.235,1.235,0,0,0-1.48-.2,12.259,12.259,0,0,1-2.646,1.091,1.234,1.234,0,0,0-.9,1.187v1.752h-4.936v-1.758a1.234,1.234,0,0,0-.9-1.187,12.232,12.232,0,0,1-2.645-1.091,1.235,1.235,0,0,0-1.481.205l-1.234,1.234-3.49-3.485,1.233-1.24a1.231,1.231,0,0,0,.205-1.481,12.331,12.331,0,0,1-1.091-2.644,1.235,1.235,0,0,0-1.181-.892h-1.759v-4.936h1.759a1.234,1.234,0,0,0,1.187-.9,12.326,12.326,0,0,1,1.091-2.644,1.231,1.231,0,0,0-.205-1.481l-1.233-1.234,3.484-3.491,1.234,1.234a1.233,1.233,0,0,0,1.481.205,12.281,12.281,0,0,1,2.645-1.091,1.234,1.234,0,0,0,.9-1.181v-1.758h4.936v1.758a1.235,1.235,0,0,0,.9,1.188,12.306,12.306,0,0,1,2.646,1.09,1.232,1.232,0,0,0,1.48-.205l1.233-1.233,3.491,3.484-1.234,1.234a1.237,1.237,0,0,0-.205,1.481,12.329,12.329,0,0,1,1.092,2.644,1.233,1.233,0,0,0,1.187.9h1.752Z"/>
      <path id="Path_549" data-name="Path 549" d="M11129.786,2086.91a8.635,8.635,0,1,0,8.63,8.63A8.627,8.627,0,0,0,11129.786,2086.91Zm0,14.8a6.17,6.17,0,1,1,6.16-6.17A6.167,6.167,0,0,1,11129.786,2101.71Z"/>
      <path id="Path_550" data-name="Path 550" d="M11108.806,2123.92h-.649c-.13-.36-.28-.72-.44-1.08l.45-.45a1.225,1.225,0,0,0,0-1.75l-3.49-3.48a1.25,1.25,0,0,0-1.74,0l-.46.45a11.035,11.035,0,0,0-1.069-.45v-.64a1.238,1.238,0,0,0-1.24-1.23h-4.93a1.231,1.231,0,0,0-1.24,1.23v.64q-.541.2-1.08.45l-.45-.45a1.234,1.234,0,0,0-1.75-.01v.01l-3.49,3.48a1.244,1.244,0,0,0,0,1.75l.46.45q-.255.54-.449,1.08h-.641a1.246,1.246,0,0,0-1.239,1.24v4.93a1.246,1.246,0,0,0,1.239,1.24h.641a11.009,11.009,0,0,0,.449,1.07l-.46.46a1.232,1.232,0,0,0,0,1.74l3.49,3.5a1.282,1.282,0,0,0,1.75,0l.45-.46a11.218,11.218,0,0,0,1.08.45v.64a1.231,1.231,0,0,0,1.24,1.23h4.93a1.238,1.238,0,0,0,1.24-1.23v-.64a11.035,11.035,0,0,0,1.069-.45l.46.46a1.232,1.232,0,0,0,1.74,0l3.49-3.5a1.23,1.23,0,0,0,0-1.74l-.45-.46a10.934,10.934,0,0,0,.44-1.07h.649a1.238,1.238,0,0,0,1.23-1.24v-4.93A1.238,1.238,0,0,0,11108.806,2123.92Zm-1.239,4.94h-.32a1.229,1.229,0,0,0-1.19.93,8.577,8.577,0,0,1-.92,2.22,1.227,1.227,0,0,0,.19,1.5l.229.22-1.75,1.75-.229-.23a1.226,1.226,0,0,0-1.5-.19,8.484,8.484,0,0,1-2.22.92,1.232,1.232,0,0,0-.921,1.19v.33h-2.47v-.33a1.229,1.229,0,0,0-.93-1.19,8.6,8.6,0,0,1-2.22-.92,1.227,1.227,0,0,0-1.5.19l-.23.23-1.74-1.75.23-.23a1.224,1.224,0,0,0,.189-1.5,8.5,8.5,0,0,1-.92-2.22,1.23,1.23,0,0,0-1.189-.92h-.33v-2.47h.33a1.23,1.23,0,0,0,1.189-.92,8.712,8.712,0,0,1,.92-2.23,1.228,1.228,0,0,0-.189-1.5l-.23-.22,1.75-1.75.221.23a1.227,1.227,0,0,0,1.5.19,8.66,8.66,0,0,1,2.229-.92,1.231,1.231,0,0,0,.92-1.19v-.33h2.47v.33a1.232,1.232,0,0,0,.921,1.19,8.484,8.484,0,0,1,2.22.92,1.24,1.24,0,0,0,1.51-.19l.22-.23,1.75,1.75-.229.23a1.223,1.223,0,0,0-.19,1.5,8.435,8.435,0,0,1,.92,2.22,1.231,1.231,0,0,0,1.19.92h.32Z"/>
      <path id="Path_551" data-name="Path 551" d="M11097.7,2121.46a6.165,6.165,0,1,0,6.17,6.17A6.173,6.173,0,0,0,11097.7,2121.46Zm0,9.87a3.705,3.705,0,1,1,3.71-3.7A3.7,3.7,0,0,1,11097.7,2131.33Z"/>
      <path id="Path_552" data-name="Path 552" d="M11145.822,2138.731h-.645a11.345,11.345,0,0,0-.446-1.079l.457-.455a1.235,1.235,0,0,0,0-1.745l-3.49-3.49a1.275,1.275,0,0,0-1.746,0l-.455.456q-.529-.25-1.078-.447v-.644a1.234,1.234,0,0,0-1.234-1.234h-4.936a1.235,1.235,0,0,0-1.234,1.234v.644c-.365.131-.726.28-1.076.447l-.455-.456a1.235,1.235,0,0,0-1.745,0h0l-3.49,3.49a1.233,1.233,0,0,0,0,1.745l.457.455a11.1,11.1,0,0,0-.447,1.079h-.645a1.233,1.233,0,0,0-1.234,1.233v4.936a1.233,1.233,0,0,0,1.234,1.234h.644a11.205,11.205,0,0,0,.446,1.077l-.455.456a1.232,1.232,0,0,0,0,1.744l3.49,3.491a1.271,1.271,0,0,0,1.746,0l.455-.455a11.4,11.4,0,0,0,1.076.445v.646a1.235,1.235,0,0,0,1.234,1.234h4.936a1.235,1.235,0,0,0,1.234-1.234v-.646a11.422,11.422,0,0,0,1.077-.445l.455.455a1.234,1.234,0,0,0,1.745,0h0l3.489-3.491a1.233,1.233,0,0,0,0-1.744l-.455-.456a10.961,10.961,0,0,0,.446-1.077h.645a1.233,1.233,0,0,0,1.233-1.234v-4.936A1.233,1.233,0,0,0,11145.822,2138.731Zm-1.234,4.935h-.323a1.234,1.234,0,0,0-1.194.926,8.647,8.647,0,0,1-.919,2.221,1.235,1.235,0,0,0,.189,1.5l.229.227-1.745,1.745-.229-.228a1.233,1.233,0,0,0-1.5-.192,8.552,8.552,0,0,1-2.221.92,1.233,1.233,0,0,0-.925,1.194v.325h-2.467v-.325a1.234,1.234,0,0,0-.927-1.194,8.594,8.594,0,0,1-2.221-.92,1.234,1.234,0,0,0-1.5.192l-.228.228-1.745-1.746.228-.227a1.232,1.232,0,0,0,.19-1.5,8.619,8.619,0,0,1-.919-2.221,1.235,1.235,0,0,0-1.194-.925h-.323V2141.2h.324a1.233,1.233,0,0,0,1.194-.925,8.667,8.667,0,0,1,.919-2.221,1.233,1.233,0,0,0-.19-1.5l-.228-.228,1.745-1.745.228.229a1.236,1.236,0,0,0,1.5.191,8.648,8.648,0,0,1,2.221-.922,1.234,1.234,0,0,0,.926-1.193v-.322h2.468v.323a1.233,1.233,0,0,0,.925,1.193,8.654,8.654,0,0,1,2.221.922,1.235,1.235,0,0,0,1.5-.191l.229-.228,1.745,1.744-.229.229a1.232,1.232,0,0,0-.189,1.5,8.685,8.685,0,0,1,.919,2.221,1.234,1.234,0,0,0,1.193.926h.321Z"/>
      <path id="Path_553" data-name="Path 553" d="M11134.717,2136.263a6.17,6.17,0,1,0,6.169,6.169A6.169,6.169,0,0,0,11134.717,2136.263Zm0,9.871a3.7,3.7,0,1,1,3.7-3.7A3.7,3.7,0,0,1,11134.717,2146.134Z"/>
    </g>
  </g>
</svg>
