<svg xmlns="http://www.w3.org/2000/svg" width="12.5" height="25" viewBox="0 0 12.5 25">
  <path id="Path_173" data-name="Path 173" d="M1289.667,1816.841v-1.757a1.563,1.563,0,0,1,3.125,0v1.76a6.421,6.421,0,0,1,2.644,1.247,1.562,1.562,0,0,1-1.972,2.422,3.542,3.542,0,0,0-2.234-.741c-1.694,0-3.125,1.072-3.125,2.344s1.431,2.343,3.125,2.343c3.447,0,6.25,2.454,6.25,5.469a5.657,5.657,0,0,1-4.688,5.275v1.756a1.563,1.563,0,1,1-3.125,0V1835.2a6.424,6.424,0,0,1-2.644-1.247,1.563,1.563,0,0,1,1.972-2.425,3.534,3.534,0,0,0,2.235.744c1.693,0,3.125-1.072,3.125-2.344s-1.432-2.344-3.125-2.344c-3.447,0-6.25-2.453-6.25-5.468A5.657,5.657,0,0,1,1289.667,1816.841Z" transform="translate(-1284.98 -1813.522)" fill="#48c8d0"/>
</svg>
