<svg xmlns="http://www.w3.org/2000/svg" xmlns:xlink="http://www.w3.org/1999/xlink" width="20" height="26.667" viewBox="0 0 20 26.667">
  <defs>
    <linearGradient id="linear-gradient" y1="0.5" x2="1" y2="0.5" gradientUnits="objectBoundingBox">
      <stop offset="0" stop-color="#f56f5f"/>
      <stop offset="1" stop-color="#f9b1b1"/>
    </linearGradient>
  </defs>
  <path id="Path_64" data-name="Path 64" d="M1065.384,3014.365c-.306-3.977-2.158-6.469-3.791-8.668-1.513-2.036-2.819-3.794-2.819-6.388a.556.556,0,0,0-.3-.494.549.549,0,0,0-.577.042,14.132,14.132,0,0,0-5.215,7.537,24.62,24.62,0,0,0-.572,5.635c-2.265-.484-2.779-3.873-2.784-3.91a.558.558,0,0,0-.289-.412.55.55,0,0,0-.5-.009c-.118.057-2.916,1.478-3.079,7.153-.011.189-.011.379-.011.568a10.011,10.011,0,0,0,10,10,.055.055,0,0,0,.022,0h.007a10.011,10.011,0,0,0,9.971-10C1065.441,3015.142,1065.384,3014.365,1065.384,3014.365Z" transform="translate(-1045.441 -2998.752)" fill="url(#linear-gradient)"/>
</svg>
