<svg xmlns="http://www.w3.org/2000/svg" width="109.354" height="90.703" viewBox="0 0 109.354 90.703">
  <g id="Quỹ_khuyến_học" data-name="Quỹ khuyến học" transform="translate(-331.754 -2488.082)">
    <g id="Group_867" data-name="Group 867">
      <path id="_01" data-name="01" d="M36.627-87.2c16,0,35.071,7.819,35.071,45.071,0,37.437-19.072,45.3-35.071,45.3S1.556-4.7,1.556-42.133C1.556-79.384,20.628-87.2,36.627-87.2Zm0,83.366c18.889,0,28.071-12.527,28.071-38.3C64.7-67.75,55.516-80.2,36.627-80.2S8.556-67.75,8.556-42.133C8.556-16.364,17.738-3.837,36.627-3.837ZM72.788-85.518H110.91V3.5h-27V-60.654H72.788Zm31.122,7H79.788v10.864H90.911V-3.5h13ZM36.627-69.227c16.2,0,16.2,18.3,16.2,27.094,0,9.547,0,27.319-16.2,27.319s-16.2-17.771-16.2-27.319C20.431-50.927,20.431-69.227,36.627-69.227Zm0,47.413c6.875,0,9.2-5.127,9.2-20.319,0-15.024-2.32-20.094-9.2-20.094s-9.2,5.07-9.2,20.094C27.431-26.941,29.752-21.814,36.627-21.814Z" transform="translate(330.198 2575.285)" fill="#f1f1f1"/>
    </g>
  </g>
</svg>
