<svg xmlns="http://www.w3.org/2000/svg" width="135.982" height="90.479" viewBox="0 0 135.982 90.479">
  <g id="Quỹ_khuyến_học" data-name="Quỹ khuyến học" transform="translate(-305.319 -2700.394)">
    <g id="Group_912" data-name="Group 912">
      <path id="_02" data-name="02" d="M105.837-87.316C124.628-87.316,136.3-76.5,136.3-59.1c0,15.812-10.948,28.721-22.71,38.857h23.946V2.376h-63.4V-17.04l4.843-3.995c15.295-12.584,31.11-25.6,31.11-36.827,0-6.275-3.4-6.275-5.039-6.275-4.629,0-5.6,4.756-5.6,8.747v3.5H73.811l.1-3.6C74.576-78.955,90.838-87.316,105.837-87.316Zm24.7,74.075H93.391l8.181-6.277c12.911-9.906,27.73-23.356,27.73-39.58,0-13.484-8.553-21.218-23.465-21.218-6.876,0-22.42,2.173-24.671,21.425h11.5c1.181-8.954,6.948-12.247,12.382-12.247,7.538,0,12.039,4.963,12.039,13.275,0,14.536-16.351,27.99-33.663,42.233l-2.29,1.888v9.118h49.4ZM36.627-87.2c16,0,35.071,7.819,35.071,45.071,0,37.437-19.072,45.3-35.071,45.3S1.556-4.7,1.556-42.133C1.556-79.384,20.628-87.2,36.627-87.2Zm0,83.366c18.889,0,28.071-12.527,28.071-38.3C64.7-67.75,55.516-80.2,36.627-80.2S8.556-67.75,8.556-42.133C8.556-16.364,17.738-3.837,36.627-3.837Zm0-65.39c16.2,0,16.2,18.3,16.2,27.094,0,9.547,0,27.319-16.2,27.319s-16.2-17.771-16.2-27.319C20.431-50.927,20.431-69.227,36.627-69.227Zm0,47.413c6.875,0,9.2-5.127,9.2-20.319,0-15.024-2.32-20.094-9.2-20.094s-9.2,5.071-9.2,20.094C27.431-26.941,29.752-21.814,36.627-21.814Z" transform="translate(303.763 2787.709)" fill="#f1f1f1"/>
    </g>
  </g>
</svg>
