<svg xmlns="http://www.w3.org/2000/svg" width="136.993" height="91.602" viewBox="0 0 136.993 91.602">
  <g id="Quỹ_khuyến_học" data-name="Quỹ khuyến học" transform="translate(-304.717 -2912.756)">
    <g id="Group_876" data-name="Group 876">
      <path id="_03" data-name="03" d="M106.96-87.428c20.812,0,30.128,12.931,30.128,25.746,0,8.827-3.894,14.9-8.571,18.485,6.519,4.26,10.031,11.221,10.031,20.164,0,16.527-12,27.207-30.577,27.207-20.706,0-32.915-10.942-33.5-30.021l-.11-3.607h25.7l.06,3.439c.087,4.936,2.366,7.235,7.174,7.235,4.722,0,5.713-3.107,5.713-5.713,0-3.679-.819-6.724-10.881-6.724h-7.1V-53.834h7.1c8.59,0,9.308-2.711,9.308-5.488,0-3.485-1.519-5.039-4.927-5.039-1.324,0-4.842,0-5.273,5.75l-.243,3.238H75.311l.177-3.669C76.347-76.816,88.112-87.428,106.96-87.428Zm1.011,84.6c14.543,0,23.577-7.743,23.577-20.207,0-8.425-3.84-13.96-11.413-16.449l-2.407-.791v-5.1l2.452-1.219c4.57-1.434,9.907-6.245,9.907-15.086,0-11.388-9.078-18.746-23.128-18.746-13.734,0-22.167,6.374-24.1,18.055H94.8a11.505,11.505,0,0,1,11.715-8.988c7.245,0,11.927,4.726,11.927,12.039,0,5.7-2.829,12.488-16.308,12.488h-.1v8.617h.1c4.423,0,17.881,0,17.881,13.724,0,7.6-5.109,12.713-12.713,12.713-7.521,0-12.5-3.925-13.822-10.674H81.76C83.914-6.342,96.982-2.826,107.972-2.826ZM36.627-87.2c16,0,35.071,7.819,35.071,45.071,0,37.437-19.072,45.3-35.071,45.3S1.556-4.7,1.556-42.133C1.556-79.384,20.628-87.2,36.627-87.2Zm0,83.366c18.889,0,28.071-12.527,28.071-38.3C64.7-67.75,55.516-80.2,36.627-80.2S8.556-67.75,8.556-42.133C8.556-16.364,17.738-3.837,36.627-3.837Zm0-65.39c16.2,0,16.2,18.3,16.2,27.094,0,9.547,0,27.319-16.2,27.319s-16.2-17.771-16.2-27.319C20.431-50.927,20.431-69.227,36.627-69.227Zm0,47.413c6.875,0,9.2-5.127,9.2-20.319,0-15.024-2.32-20.094-9.2-20.094s-9.2,5.07-9.2,20.094C27.431-26.941,29.752-21.814,36.627-21.814Z" transform="translate(303.161 3000.184)" fill="#f1f1f1"/>
    </g>
  </g>
</svg>
