<svg xmlns="http://www.w3.org/2000/svg" width="146.88" height="90.703" viewBox="0 0 146.88 90.703">
  <g id="Quỹ_khuyến_học" data-name="Quỹ khuyến học" transform="translate(-303.717 -3125.405)">
    <g id="Group_916" data-name="Group 916">
      <path id="_04" data-name="04" d="M36.627-87.2c16,0,35.071,7.819,35.071,45.071,0,37.437-19.072,45.3-35.071,45.3S1.556-4.7,1.556-42.133C1.556-79.384,20.628-87.2,36.627-87.2Zm0,83.366c18.889,0,28.071-12.527,28.071-38.3C64.7-67.75,55.516-80.2,36.627-80.2S8.556-67.75,8.556-42.133C8.556-16.364,17.738-3.837,36.627-3.837ZM112.44-84.394h26.783v49.66h9.213v23.628h-9.213V3.5H113.01V-11.106H75.26V-31.213Zm19.783,7H116.087L82.26-29.009v10.9H120.01V-3.5h12.212V-18.106h9.213v-9.628h-9.213Zm-10.864,5.986v43.674H92.472Zm-7,36.674v-13.4l-8.864,13.4ZM36.627-69.227c16.2,0,16.2,18.3,16.2,27.094,0,9.547,0,27.319-16.2,27.319s-16.2-17.771-16.2-27.319C20.431-50.927,20.431-69.227,36.627-69.227Zm0,47.413c6.875,0,9.2-5.127,9.2-20.319,0-15.024-2.32-20.094-9.2-20.094s-9.2,5.071-9.2,20.094C27.431-26.941,29.752-21.814,36.627-21.814Z" transform="translate(302.161 3212.608)" fill="#f1f1f1"/>
    </g>
  </g>
</svg>
