<svg xmlns="http://www.w3.org/2000/svg" width="142.723" height="90.703" viewBox="0 0 142.723 90.703">
  <g id="Quỹ_khuyến_học" data-name="Quỹ khuyến học" transform="translate(-298.407 -3337.671)">
    <g id="Group_908" data-name="Group 908">
      <path id="_05" data-name="05" d="M36.627-87.2c16,0,35.071,7.819,35.071,45.071,0,37.437-19.072,45.3-35.071,45.3S1.556-4.7,1.556-42.133C1.556-79.384,20.628-87.2,36.627-87.2Zm0,83.366c18.889,0,28.071-12.527,28.071-38.3C64.7-67.75,55.516-80.2,36.627-80.2S8.556-67.75,8.556-42.133C8.556-16.364,17.738-3.837,36.627-3.837ZM80.091-85.63H139.56v23.853H104.506v5.3a27.416,27.416,0,0,1,11.555-2.412c20.828,0,28.218,16.351,28.218,30.352,0,19.762-12.19,32.038-31.813,32.038-19.543,0-32.6-10.889-33.271-27.742l-.144-3.639h25.332L104.9-25c.426,2.376,1.968,5.208,6.892,5.208,1.719,0,6.949,0,6.949-8.859,0-6.513-2.823-7.848-7.061-7.848-3.386,0-5.459,1.384-6.16,4.113l-.676,2.628H80.091Zm52.469,7H87.091v41.874H99.712c2.128-4.269,6.428-6.741,11.967-6.741,8.936,0,14.061,5.412,14.061,14.848,0,9.93-5.215,15.859-13.949,15.859-6.187,0-10.928-3.031-12.961-8.089H86.607C88.715-10.065,98.3-3.5,112.466-3.5c15.769,0,24.813-9.126,24.813-25.038,0-11.289-5.574-23.352-21.218-23.352-5.2,0-9.869,1.683-12.494,4.5l-6.062,6.511v-27.9H132.56Zm-95.933,9.4c16.2,0,16.2,18.3,16.2,27.094,0,9.547,0,27.319-16.2,27.319s-16.2-17.771-16.2-27.319C20.431-50.927,20.431-69.227,36.627-69.227Zm0,47.413c6.875,0,9.2-5.127,9.2-20.319,0-15.024-2.32-20.094-9.2-20.094s-9.2,5.071-9.2,20.094C27.431-26.941,29.752-21.814,36.627-21.814Z" transform="translate(296.851 3424.874)" fill="#f1f1f1"/>
    </g>
  </g>
</svg>
