<svg xmlns="http://www.w3.org/2000/svg" width="29.13" height="17.077" viewBox="0 0 29.13 17.077">
  <g id="Group_21" data-name="Group 21" transform="translate(-446.456 -1178.555)">
    <path id="Path_41" data-name="Path 41" d="M460.777,1188.826l-11.321,6.535a2,2,0,0,1-3-1.732v-13.071a2,2,0,0,1,3-1.732l11.321,6.535A2,2,0,0,1,460.777,1188.826Z" fill="#21a4ae"/>
    <path id="Path_42" data-name="Path 42" d="M474.586,1188.826l-11.321,6.535a2,2,0,0,1-3-1.732v-13.071a2,2,0,0,1,3-1.732l11.321,6.535A2,2,0,0,1,474.586,1188.826Z" fill="#48c8d0"/>
  </g>
</svg>
