<svg xmlns="http://www.w3.org/2000/svg" width="125" height="125" viewBox="0 0 125 125"><defs><style>.a{fill:#d8f0f1;}.b{fill:#010101;}.c{fill:#ac6c6b;}.d{fill:#995e5d;}.e{fill:#0088d7;}.f{fill:#e9ebec;}.g{fill:#40c7d0;}.h{fill:#f66e5b;}.i{fill:#5daedb;}.j{fill:#f8df49;}</style></defs><g transform="translate(-3748.211 -2128.035)"><circle class="a" cx="62.5" cy="62.5" r="62.5" transform="translate(3748.211 2128.035)"/><path class="b" d="M3821.428,2148.483v-2.407a1.232,1.232,0,0,1,1.494-.744c.734.221.9.819.886,1.509q-.012.437,0,.873c.019.69-.153,1.287-.885,1.511C3822.219,2149.441,3821.767,2149.053,3821.428,2148.483Z"/><path class="b" d="M3833.331,2159.206a5.379,5.379,0,0,1-.958-.01,1.121,1.121,0,0,1-1.019-1.221,1.079,1.079,0,0,1,1.019-1.135,9.073,9.073,0,0,1,1.916,0,1.092,1.092,0,0,1,1.029,1.136,1.132,1.132,0,0,1-1.029,1.222A5.884,5.884,0,0,1,3833.331,2159.206Z"/><path class="b" d="M3816.537,2150.241a1.207,1.207,0,0,1-.21,1.659,1.235,1.235,0,0,1-1.616-.023c-.365-.382-.742-.753-1.094-1.147a1.2,1.2,0,0,1-.033-1.707,1.16,1.16,0,0,1,1.7,0C3815.722,2149.407,3816.122,2149.833,3816.537,2150.241Z"/><path class="b" d="M3831.951,2149.846a1.084,1.084,0,0,1-.2.659,15.006,15.006,0,0,1-1.47,1.463,1.063,1.063,0,0,1-1.516-.157,1.076,1.076,0,0,1-.133-1.462,6.084,6.084,0,0,1,1.528-1.513A1.184,1.184,0,0,1,3831.951,2149.846Z"/><path class="b" d="M3831.065,2167.385a3,3,0,0,1-2.6-2.721c.648-1.012,1.332-1.107,2.183-.3.23.218.455.443.678.668C3832.245,2165.966,3832.166,2166.679,3831.065,2167.385Z"/><path d="M3851.741,2187.108c0-1.218-.4-1.6-1.644-1.606-2.136,0-4.273-.036-6.408.018-.714.019-.867-.176-.857-.87q.063-4.323,0-8.649a3.586,3.586,0,0,0-7.122-.654c-.076.39-.23.5-.6.576-1.807.355-3.626.63-5.453.842-2.728.317-5.458.635-8.208.7a1.215,1.215,0,0,0-.914-.186c-2.127.124-4.255.259-6.387.274-5.413.039-10.821-.015-16.222-.458-3.378-.278-6.74-.65-10.083-1.209a1.308,1.308,0,0,1-1.213-1.036,3.668,3.668,0,0,0-3.254-2.69c-2.187-.3-4.416,1.685-4.13,3.717a21.656,21.656,0,0,1,.129,2.863c.018,1.973.009,3.947,0,5.921a1.32,1.32,0,0,1-.079.779c-.263.022-.526.062-.788.062-2.455,0-4.91,0-7.365.006-1.024,0-1.459.441-1.459,1.465q-.006,13.686-.007,27.372c0,.8.281,1.34,1.121,1.48.988-.149,1.286-.5,1.286-1.557,0-6.884.012-13.768-.015-20.652,0-.714.158-.943.907-.923,2.32.059,4.643.034,6.964.042,1.013-.008,2.028.021,3.039-.038.58-.034.735.215.768.72.1,1.622.226,3.242.347,4.863q.462,6.216.928,12.432c.169,2.258.357,4.514.5,6.774a4.491,4.491,0,0,0,.5,1.826,3.317,3.317,0,0,0,2.681,1.165q22.313-.025,44.625-.01a2.741,2.741,0,0,0,3.059-2.764c.33-4.175.626-8.353.939-12.529.293-3.91.6-7.82.874-11.731.039-.57.2-.761.8-.747,2.216.049,4.432.034,6.648.044,1.039-.009,2.08,0,3.118-.034.467-.017.629.154.575.6a3.293,3.293,0,0,0,0,.4q0,15.156.016,30.31c0,.717-.16.979-.91.922-.981-.075-1.971-.034-2.957-.043q-8.811.014-17.624.025-27.4,0-54.8.018c-.816,0-1.046-.2-.992-1,.074-1.117.021-2.242.014-3.363-.007-1.063-.364-1.422-1.431-1.462a1.212,1.212,0,0,0-.974,1.357c.007,1.735,0,3.47,0,5.206,0,1.284.372,1.65,1.673,1.65H3850.1c1.249,0,1.64-.381,1.64-1.6Q3851.742,2206.41,3851.741,2187.108Zm-13.712-3.359c0-2.558-.008-5.117.031-7.675a1.183,1.183,0,0,1,1.811-1.11,1.269,1.269,0,0,1,.564,1.165c0,1.466,0,2.932,0,4.4h-.01c0,1.439-.013,2.878.008,4.317.006.445-.059.658-.6.666C3838.027,2185.535,3838.025,2185.56,3838.029,2183.749Zm-9.309-4.475a62.105,62.105,0,0,0,6.485-.927c.321-.063.433.012.432.342q-.011,3.281,0,6.561c0,.313-.186.374-.408.489-1.537.8-3.255.721-4.893,1.026-.549.1-1.116.1-1.666.2-.441.078-.542-.076-.533-.492.024-1.093.008-2.187.008-3.28,0-1.067.021-2.134-.01-3.2C3828.125,2179.542,3828.222,2179.317,3828.72,2179.274Zm-11.295,1.369c0-.392.08-.565.519-.575q3.681-.087,7.346-.45c.467-.045.458.192.457.513-.007,1.12,0,2.241,0,3.361h-.006c0,1.067-.022,2.135.011,3.2.013.447-.131.583-.571.62-2.419.2-4.839.372-7.266.455-.392.013-.5-.1-.492-.482Q3817.447,2183.964,3817.425,2180.643Zm-10.388-.463c1.251.046,2.5.015,3.758.015,1.2,0,2.4.019,3.6-.01.453-.01.652.053.643.59-.034,2.158-.025,4.317,0,6.476.005.468-.092.652-.607.647q-3.717-.037-7.436,0c-.523.006-.6-.193-.6-.653.021-2.132.024-4.264,0-6.4C3806.384,2180.347,3806.487,2180.16,3807.037,2180.18Zm-10.537-.478,3.316.214q1.91.079,3.82.159c.2.008.387.01.33.3.011,2.319.01,4.638.042,6.956.006.446-.2.447-.535.436-2.025-.065-4.047-.186-6.065-.374-1.719-.029-1.722-.029-1.727-1.683,0-1.785.021-3.57-.018-5.355C3795.649,2179.667,3795.813,2179.394,3796.5,2179.7Zm-9.215-1.24a51.771,51.771,0,0,0,5.448.789c.461.047.562.24.553.66-.024,1.092-.008,2.184-.008,3.277s-.02,2.185.01,3.276c.012.441-.131.546-.546.483-1.631-.247-3.271-.439-4.9-.719-1.038-.179-1.253-.51-1.253-1.538,0-1.865.021-3.73-.012-5.594C3786.57,2178.531,3786.7,2178.339,3787.285,2178.462Zm-5.486-2.2c.008-.959.459-1.492,1.187-1.492s1.176.536,1.189,1.492c.018,1.442,0,2.884,0,4.326h-.01c0,1.442-.016,2.884.009,4.325.008.459-.148.577-.593.587-1.8.04-1.809.055-1.809-1.708C3781.776,2181.286,3781.778,2178.776,3781.8,2176.266Zm3.59,14.032c-2.137.014-4.273,0-6.41.006-2.029,0-4.059-.019-6.088.012-.587.009-.84-.089-.821-.766.044-1.649.006-1.65,1.688-1.65h11.056c.214,0,.429-.012.641.007a1.238,1.238,0,0,1,1.213,1.237A1.192,1.192,0,0,1,3785.389,2190.3Zm50.45,2.842q-.372,4.494-.681,8.992c-.037.548-.215.684-.754.677-2.529-.031-5.058,0-7.587-.021a1.1,1.1,0,0,0-1.234.839c.034,1.236.384,1.566,1.657,1.572l6.23.028c1.482-.084,1.493-.082,1.332,1.374a9.178,9.178,0,0,1-.188,2.033c-.205,2.945-.417,5.89-.609,8.836-.029.443-.216.6-.646.6-3.061-.022-6.122-.031-9.183-.043a26.6,26.6,0,0,1-3.206,0q-5.609.1-11.219,0a26.79,26.79,0,0,1-3.205,0q-5.61.1-11.219,0a26.583,26.583,0,0,1-3.2,0c-1.173.013-2.346.016-3.519.045-.474.012-.646-.17-.68-.649-.241-3.432-.51-6.861-.768-10.292-.014-.186-.015-.373-.028-.559-.1-1.368-.1-1.37,1.324-1.368l16.17.028h14.424l1.761-.028c1.12-.015,1.507-.427,1.477-1.574h0a1.8,1.8,0,0,0-.722-.8l-.433-.051q-7.21.014-14.422.025-9.535.006-19.071-.01c-.252,0-.577.186-.778-.15-.17-1.7-.344-3.41-.357-5.126-.134-1.506-.265-3.013-.407-4.518-.033-.343.2-.37.433-.45a3.576,3.576,0,0,0,2.543-3.239c.02-.183-.087-.459.293-.407,1.711.237,3.422.466,5.133.7a.618.618,0,0,1,.387.052l7.98.522,1.866.055a.872.872,0,0,1,.252.007l3.17.094,11.538-.181a22.13,22.13,0,0,1,3.2-.184c2.031-.2,4.064-.4,6.094-.617,1.108-.121,2.212-.275,3.315-.438.376-.056.585-.05.57.437a4.176,4.176,0,0,0,.443,1.594,4.776,4.776,0,0,0,1.919,1.61C3835.616,2192.559,3835.881,2192.625,3835.839,2193.14Zm11.715-2.837c-.582,0-1.164-.018-1.746-.027-3.088.007-6.176.022-9.263.018a1.194,1.194,0,1,1,.006-2.382c3.034-.01,6.069.007,9.1.014,1.059-.008,2.118-.007,3.177-.031.368-.009.492.109.517.492C3849.472,2190.3,3849.484,2190.306,3847.554,2190.3Z"/><path class="c" d="M3772.087,2220.564c.007,1.121.06,2.246-.014,3.363-.054.8.176,1,.992,1q27.4-.037,54.8-.018,8.813,0,17.624-.025c.008-.073.012-.145.019-.218l-.042,0a9.524,9.524,0,0,0-1.12-.03q-35.133,0-70.267,0c-1.872,0-1.7.119-1.717-1.755a24.761,24.761,0,0,0-.042-2.642,1.186,1.186,0,0,0-1.662-1.139h0C3771.723,2219.142,3772.08,2219.5,3772.087,2220.564Z"/><path class="d" d="M3845.682,2192.947c.038,0,.075,0,.113,0a.785.785,0,0,0-.148-.216c.011.07.016.141.021.211Z"/><path class="d" d="M3845.506,2224.668c-.007.073-.011.145-.019.218a.767.767,0,0,0,.168-.224Z"/><path class="e" d="M3849.338,2193.7a3.293,3.293,0,0,1,0-.4c.054-.442-.108-.613-.575-.6-1.038.037-2.079.025-3.118.034a.785.785,0,0,1,.148.216c-.038,0-.075,0-.113,0h-.014c0-.07-.01-.141-.021-.211-2.216-.01-4.432,0-6.648-.044-.6-.014-.76.177-.8.747-.273,3.911-.581,7.821-.874,11.731-.313,4.176-.609,8.354-.939,12.529a2.741,2.741,0,0,1-3.059,2.764q-22.312,0-44.625.01a3.317,3.317,0,0,1-2.681-1.165h-.225c-.031-.052-.063-.1-.091-.157a1.455,1.455,0,0,1,.316.157,4.491,4.491,0,0,1-.5-1.826c-.138-2.26-.326-4.516-.5-6.774q-.463-6.216-.928-12.432c-.121-1.621-.243-3.241-.347-4.863-.033-.505-.188-.754-.768-.72-1.011.059-2.026.03-3.039.038-2.321-.008-4.644.017-6.964-.042-.749-.02-.91.209-.907.923.027,6.884.017,13.768.015,20.652,0,1.055-.3,1.408-1.286,1.557a5.822,5.822,0,0,1,.049,1.666c-.022.539.206,1.119-.2,1.615h0a1.186,1.186,0,0,1,1.662,1.139,24.761,24.761,0,0,1,.042,2.642c.02,1.874-.155,1.755,1.717,1.755q35.133,0,70.267,0a9.524,9.524,0,0,1,1.12.03l.042,0,.149-.006a.767.767,0,0,1-.168.224c.986.009,1.976-.032,2.957.043.75.057.912-.2.91-.922Q3849.318,2208.853,3849.338,2193.7Z"/><path class="d" d="M3785.8,2219.308h.225a1.455,1.455,0,0,0-.316-.157C3785.734,2219.2,3785.766,2219.256,3785.8,2219.308Z"/><path class="f" d="M3810.547,2202.636l.01,0-.013-.008Z"/><path class="g" d="M3833.47,2205.227l-6.23-.028c-1.273-.006-1.623-.336-1.657-1.572-.552.59-1.223.428-1.889.3l-1.243-.01-.022-.037-.146-.252h0c.03,1.147-.357,1.559-1.477,1.574l-1.761.028h-14.424l-16.17-.028c-1.42,0-1.42,0-1.324,1.368.013.186.014.373.028.559.258,3.431.527,6.86.768,10.292.034.479.206.661.68.649,1.173-.029,2.346-.032,3.519-.045a26.583,26.583,0,0,0,3.2,0q5.61.094,11.219,0a26.79,26.79,0,0,0,3.205,0q5.61.094,11.219,0a26.6,26.6,0,0,0,3.206,0c3.061.012,6.122.021,9.183.043.43,0,.617-.154.646-.6.192-2.946.4-5.891.609-8.836a9.178,9.178,0,0,0,.188-2.033C3834.963,2205.145,3834.952,2205.143,3833.47,2205.227Z"/><path class="g" d="M3786.668,2189.145a1.238,1.238,0,0,0-1.213-1.237c-.212-.019-.427-.007-.641-.007h-11.056c-1.682,0-1.644,0-1.688,1.65-.019.677.234.775.821.766,2.029-.031,4.059-.012,6.088-.012,2.137,0,4.273.008,6.41-.006A1.192,1.192,0,0,0,3786.668,2189.145Z"/><path class="h" d="M3839.836,2185.509c.537-.008.6-.221.6-.666-.021-1.439-.008-2.878-.008-4.317h.01c0-1.465,0-2.931,0-4.4a1.269,1.269,0,0,0-.564-1.165,1.183,1.183,0,0,0-1.811,1.11c-.039,2.558-.027,5.117-.031,7.675C3838.025,2185.56,3838.027,2185.535,3839.836,2185.509Z"/><path class="h" d="M3783.585,2185.5c.445-.01.6-.128.593-.587-.025-1.441-.009-2.883-.009-4.325h.01c0-1.442.014-2.884,0-4.326-.013-.956-.462-1.491-1.189-1.492s-1.179.533-1.187,1.492c-.021,2.51-.023,5.02-.023,7.53C3781.776,2185.559,3781.782,2185.544,3783.585,2185.5Z"/><path class="g" d="M3849.348,2188.387c-.025-.383-.149-.5-.517-.492-1.059.024-2.118.023-3.177.031-3.034-.007-6.069-.024-9.1-.014a1.194,1.194,0,1,0-.006,2.382c3.087,0,6.175-.011,9.263-.018.582.009,1.164.026,1.746.027C3849.484,2190.306,3849.472,2190.3,3849.348,2188.387Z"/><path class="i" d="M3801.871,2167.688h-11.6l-4.142-1.167,2.071-3.013,4.293-2.335,2.787-2.448h3.314l1.469-3.239,1.808-1.77,3.728-.866,6.025,1.356,1.618,4.444,1.357,1.619,3.427.452,3.125,1.958,2.109,1.318,2.146.452,1.092,1.732-.75,1.506Z"/><path d="M3810.571,2155.817a5.586,5.586,0,0,0-5.745-2.148,5.78,5.78,0,0,0-4.684,4.3c-.062.2-.1.415-.145.623-.208.916-.748,1.347-1.608,1.074a4.767,4.767,0,0,0-6.1,3.713c-.159.854-.786,1.024-1.57.985a3,3,0,0,0-3.2,1.861h6.242a7.187,7.187,0,0,1,.88.022,1.172,1.172,0,0,1,.227,2.274,2.985,2.985,0,0,1-.866.1q-3.523.012-7.046,0a1.884,1.884,0,0,1-2.2-1.43,5.548,5.548,0,0,1,4.874-5.212.842.842,0,0,0,.769-.615,7.031,7.031,0,0,1,6.942-4.3c.377.019.548-.042.7-.414,2.545-6.159,9.82-7.427,14.315-2.509a.66.66,0,0,0,.128.09,3.3,3.3,0,0,1,1.259,2.1l.553,2.158c1.563.282,1.089-1.064,1.2-1.691a7.155,7.155,0,0,1,14.205,1.156,6.792,6.792,0,0,1-2.287,5.267c-.3.28-.412.437-.095.809a10.692,10.692,0,0,1,.882,1.421c.7,2.465.17,3.162-2.406,3.163l-25.11.005h-.32c-.71.009-1.278-.225-1.436-.984a1.178,1.178,0,0,1,.873-1.415c1.425-.129,2.845-.228,4.283-.218,6.765.046,13.53.021,20.295.019a1.655,1.655,0,0,0,.779-.081c.2-.254-.021-.4-.163-.533a2.812,2.812,0,0,0-2.638-.784c-.261.052-.51.152-.774.2a1.506,1.506,0,0,1-1.9-1.031,5.329,5.329,0,0,0-.649-1.275,3.829,3.829,0,0,0-5-1.028,3.551,3.551,0,0,1-.494.262c-1.259.147-1.963-.471-1.881-1.7a9.323,9.323,0,0,0-.049-1.351,4.743,4.743,0,0,0-.667-2.023A2.714,2.714,0,0,1,3810.571,2155.817Z"/><path class="j" d="M3827,2156.323a4.607,4.607,0,0,0-5.241-2.906h0a4.617,4.617,0,0,0-3.877,4.8.573.573,0,0,0,.429.567,6.256,6.256,0,0,1,3.316,2.855c.146.264.3.44.622.284a7.861,7.861,0,0,1,2.216.212.7.7,0,0,0,.6-.1A4.731,4.731,0,0,0,3827,2156.323Z"/></g></svg>