<svg xmlns="http://www.w3.org/2000/svg" width="125" height="125" viewBox="0 0 125 125"><defs><style>.a{fill:#f7dbd9;}.b{fill:#0088d7;}.c{fill:#40c7d0;}.d{fill:#11a3ae;}.e{fill:#f8df49;}.f{fill:#f66e5b;}.g{fill:#fff8f4;}</style></defs><g transform="translate(-4393.417 -2128.035)"><circle class="a" cx="62.5" cy="62.5" r="62.5" transform="translate(4393.417 2128.035)"/><path class="b" d="M4430.854,2149.1h34.666v58.667h-34.666Z"/><ellipse class="c" cx="10.667" cy="20" rx="10.667" ry="20" transform="translate(4417.52 2174.431)"/><path class="d" d="M4430.52,2213.1a5,5,0,0,0-5,5h0v4.333a4,4,0,0,0-8,0v4h16V2213.1Z"/><path class="e" d="M4460.187,2226.431h18.667v-58.666l-18.667-12Z"/><path class="f" d="M4460.187,2226.431H4433.52v-26.666l12-10.667,14.667,10.667Z"/><path class="g" d="M4453.52,2226.431h-8v-28l8,5.334Z"/><ellipse class="c" cx="10.667" cy="20" rx="10.667" ry="20" transform="translate(4473.52 2174.431)"/><path class="d" d="M4490.854,2218.431a4,4,0,0,0-4,4V2218.1a5,5,0,0,0-5-5h-3v13.333h16v-4A4,4,0,0,0,4490.854,2218.431Z"/><path d="M4436.187,2154.431h2.667v4h-2.667Z"/><path d="M4441.52,2158.431h2.667v4h-2.667Z"/><path d="M4436.187,2162.431h2.667v4h-2.667Z"/><path d="M4441.52,2166.431h2.667v4h-2.667Z"/><path d="M4436.187,2171.765h2.667v4h-2.667Z"/><path d="M4441.52,2175.765h2.667v4h-2.667Z"/><path d="M4441.52,2183.765h2.667v4h-2.667Z"/><path d="M4446.854,2154.431h2.666v4h-2.666Z"/><path d="M4452.187,2158.431h2.667v4h-2.667Z"/><path d="M4446.854,2162.431h2.666v4h-2.666Z"/><path d="M4452.187,2166.431h2.667v4h-2.667Z"/><path d="M4446.854,2171.765h2.666v4h-2.666Z"/><path d="M4446.854,2179.765h2.666v4h-2.666Z"/><path d="M4452.187,2175.765h2.667v4h-2.667Z"/><path d="M4452.187,2183.765h2.667v4h-2.667Z"/><path d="M4477.52,2171.765h2.667v-4a1.336,1.336,0,0,0-.612-1.122l-6.667-4.286-1.442,2.244,6.054,3.892Z"/><path d="M4465.52,2166.431h2.667v4h-2.667Z"/><path d="M4465.52,2174.431h2.667v4h-2.667Z"/><path d="M4465.52,2182.431h2.667v4h-2.667Z"/><path d="M4465.52,2190.431h2.667v4h-2.667Z"/><path d="M4465.52,2198.431h2.667v4h-2.667Z"/><path d="M4465.52,2206.431h2.667v4h-2.667Z"/><path d="M4465.52,2214.431h2.667v4h-2.667Z"/><path d="M4470.854,2170.431h2.666v4h-2.666Z"/><path d="M4470.854,2210.431h2.666v4h-2.666Z"/><path d="M4470.854,2218.431h2.666v4h-2.666Z"/><path d="M4438.854,2214.431h2.666v4h-2.666Z"/><path d="M4490.854,2217.1a5.293,5.293,0,0,0-2.673.72,6.3,6.3,0,0,0-.793-2.8c2.285-1.089,4.328-3.342,5.88-6.531a32.857,32.857,0,0,0,2.919-14.06c0-11.962-5.271-21.333-12-21.333s-12,9.371-12,21.333c0,7.4,2.112,14.177,5.5,18.02a1.334,1.334,0,0,0-.167.647v12h-16v-66.891l7.279,4.679,1.442-2.243-3.387-2.178V2149.1a1.334,1.334,0,0,0-1.334-1.333h-34.666a1.334,1.334,0,0,0-1.334,1.333v21.333h2.667v-20h32v6.32l-3.279-2.108a1.333,1.333,0,0,0-2.054,1.122v41.381l-12.55-9.126a1.331,1.331,0,0,0-1.669.082l-4.515,4.013c-.63-10.834-5.645-19.017-11.933-19.017-3.6,0-6.952,2.747-9.206,7.537l2.412,1.135c1.8-3.816,4.273-6.005,6.794-6.005,5.058,0,9.332,8.545,9.333,18.66l-4.885,4.343a1.334,1.334,0,0,0-.448,1v12h-1.667a6.324,6.324,0,0,0-1,.079V2197.65l4.943-4.942-1.886-1.886-4.515,4.516-4.408-3.307-1.6,2.134,4.8,3.6V2212.9c-2-.606-3.883-2.559-5.348-5.57a30.125,30.125,0,0,1-2.652-12.9,32.5,32.5,0,0,1,1.572-10.241l-2.527-.851a35.188,35.188,0,0,0-1.712,11.092,32.835,32.835,0,0,0,2.921,14.063c1.552,3.188,3.593,5.44,5.877,6.528a6.294,6.294,0,0,0-.792,2.8,5.33,5.33,0,0,0-8.006,4.613v4a1.334,1.334,0,0,0,1.333,1.334h77.334a1.334,1.334,0,0,0,1.333-1.334v-4a5.339,5.339,0,0,0-5.333-5.333Zm-32,8h-4v-21.333a1.335,1.335,0,0,0-.594-1.11l-7.406-4.937v-6l12,8.728Zm-40-2.667a2.667,2.667,0,0,1,5.333,0v2.667h-5.333Zm8-4.333a3.671,3.671,0,0,1,3.666-3.667h1.667V2225.1h-5.333Zm8-17.735,9.333-8.3V2225.1h-9.333Zm12,24.735v-24.175l5.333,3.555v20.62Zm37.333-49.333c5.059,0,9.333,8.548,9.333,18.666a30.148,30.148,0,0,1-2.65,12.893c-1.466,3.012-3.348,4.967-5.35,5.573v-15.132l4.8-3.6-1.6-2.134-4.408,3.307-4.516-4.516-1.885,1.886,4.943,4.942v14.194a6.333,6.333,0,0,0-1-.079H4480.8c-3.56-2.882-5.947-9.831-5.947-17.334,0-10.118,4.274-18.666,9.333-18.666Zm-4,38.666h1.667a3.671,3.671,0,0,1,3.666,3.667v7h-5.333Zm13.333,10.667h-5.333v-2.667a2.667,2.667,0,0,1,5.333,0Z"/></g></svg>