<svg xmlns="http://www.w3.org/2000/svg" width="184.211" height="205.485" viewBox="0 0 184.211 205.485"><defs><style>.a{fill:#0088d7;}</style></defs><path class="a" d="M4784.9,1786.012c6.729-.912,13.559-1.238,19.733,1.307,4.069,1.678,7.745,4.569,12.026,5.463,9.122,1.905,18.1-5.471,26.475-11.281,16.785-11.64,51.5-6.986,50.9,22.379-.4,19.385-23.292,33.772-20.49,52.6,2.5,16.791,23.124,19.329,28.709,34.776,3.707,10.254-.775,23.284-8.077,31.357-8.637,9.548-21.321,10.747-31.519,16.869-14.405,8.646-7.028,17.49-15.565,29.829-4.052,5.856-10.893,7.86-17.19,9.327-10.408,2.425-21.654,4.344-30.913-.805-4.32-2.4-7.872-6.187-11.816-9.288-4.424-3.479-9.493-6.147-14.957-6.628-11.3-.994-27.756,11.342-36.295-3.369-2.514-4.329-2.037-9.9-3.927-14.448-2.187-5.258-5.806-8.224-8.115-13.447-8.375-18.947-4.726-47.228,8.01-65.044,5.645-7.9,12.841-13.967,17.227-23.133,6.944-14.513.439-32.715,10.59-45.69,5.588-7.144,14.164-9.084,22.049-10.31C4782.8,1786.311,4783.848,1786.154,4784.9,1786.012Z" transform="translate(-4719.371 -1775.603)"/></svg>