<svg xmlns="http://www.w3.org/2000/svg" width="184.211" height="205.485" viewBox="0 0 184.211 205.485"><defs><style>.a{fill:#40c7d0;}</style></defs><path class="a" d="M3424.341,1496.493c6.728-.911,13.558-1.238,19.732,1.308,4.069,1.678,7.746,4.568,12.026,5.462,9.123,1.906,18.1-5.471,26.476-11.28,16.785-11.641,51.5-6.986,50.9,22.379-.4,19.385-23.292,33.772-20.489,52.6,2.5,16.792,23.124,19.33,28.708,34.776,3.708,10.255-.774,23.285-8.076,31.357-8.637,9.549-21.321,10.748-31.519,16.869-14.4,8.647-7.028,17.491-15.566,29.829-4.051,5.856-10.892,7.86-17.19,9.328-10.407,2.425-21.654,4.344-30.913-.806-4.32-2.4-7.872-6.186-11.815-9.287-4.424-3.479-9.493-6.147-14.957-6.628-11.3-.994-27.756,11.342-36.3-3.369-2.513-4.329-2.036-9.9-3.926-14.448-2.188-5.259-5.806-8.224-8.115-13.447-8.376-18.948-4.727-47.229,8.01-65.045,5.645-7.9,12.841-13.966,17.226-23.132,6.944-14.514.44-32.715,10.59-45.69,5.589-7.144,14.165-9.085,22.049-10.31C3422.239,1496.792,3423.289,1496.636,3424.341,1496.493Z" transform="translate(-3358.812 -1486.085)"/></svg>